<svg width="150" height="210" viewBox="0 0 150 210" fill="none" xmlns="http://www.w3.org/2000/svg">
<rect width="150" height="210" rx="10" fill="#2E2E2E" fill-opacity="0.4"/>
<path d="M91.8006 58.4007C91.8005 58.4005 91.8003 58.4004 91.8001 58.4004C86.9816 58.4187 82.1684 59.4288 77.8298 61.4701C73.4143 63.5479 69.3542 68.189 66.3535 73.7605C63.3526 79.3317 61.4028 85.7952 60.9097 91.1952C59.4505 107.187 50.8508 121.467 30.041 140.319C29.6985 140.629 29.4952 141.073 29.4911 141.535V141.535C29.4789 142.927 31.0878 143.702 32.1554 142.808C44.65 132.351 53.7864 121.93 60.4703 111.54C60.4725 111.536 60.4768 111.535 60.4804 111.537V111.537C60.4839 111.538 60.4857 111.542 60.4846 111.546C58.6577 117.923 56.0375 123.953 51.916 128.821C45.8254 135.703 38.538 142.571 29.8263 149.424C29.5652 149.629 29.4105 149.942 29.408 150.274V150.274C29.4035 150.878 29.8909 151.371 30.4947 151.372L34.3147 151.382V151.382C34.3742 151.382 34.4315 151.36 34.4757 151.32L34.6587 151.155C39.4504 147.918 44.2022 144.977 48.9118 143.01C48.9232 143.005 48.9362 143.008 48.9448 143.017V143.017C48.9571 143.029 48.9566 143.049 48.9439 143.06L43.5042 148.035C42.2024 149.226 43.042 151.395 44.8062 151.399V151.399C45.2711 151.4 45.7209 151.234 46.072 150.929C55.3843 142.844 64.2787 133.432 71.0111 124.487C77.0524 116.46 81.2581 108.763 82.6328 103.069C82.8715 102.08 82.6392 101.068 82.2234 100.14V100.14C78.5209 91.8771 81.3833 81.1974 90.1301 77.3393C96.5647 74.5007 104.846 76.7176 107.91 83.4968C107.939 83.5622 107.974 83.6214 108.002 83.6874C110.617 88.4143 109.216 93.4076 106.165 95.8612C104.619 97.1044 102.54 97.733 100.513 97.1499C98.9444 96.699 97.5615 95.561 96.5191 93.8538C95.9908 92.9886 96.4575 91.9036 97.396 91.5203V91.5203C98.3337 91.1374 99.3627 91.6218 99.9675 92.4343C100.508 93.1609 101.057 93.4851 101.526 93.6206C102.255 93.83 103.053 93.6496 103.861 93.0002C105.476 91.7017 106.669 88.696 104.727 85.3328L104.672 85.2405L104.629 85.1423C102.525 80.2664 96.3797 78.5941 91.6103 80.6976C84.9136 83.6516 82.6467 92.1018 85.5775 98.6422C89.6131 107.649 100.906 110.66 109.636 106.672C121.463 101.27 125.389 86.3734 120.074 74.8841C115.211 64.3736 104.069 58.6803 92.7653 58.4134C92.4444 58.4055 92.1223 58.3996 91.8012 58.401C91.8009 58.401 91.8007 58.4009 91.8006 58.4007V58.4007ZM86.7381 63.6494C86.7381 63.6494 86.7381 63.6495 86.7382 63.6495C87.3747 63.6564 87.989 63.7179 88.5872 63.8275V63.8275C90.0861 64.1023 89.5031 66.147 88.0033 66.4166C84.4661 67.0524 81.2301 68.771 78.4137 71.2988C75.408 73.996 72.9243 77.6312 71.2347 81.7946C70.5178 83.561 68.0093 83.6143 68.0985 81.7101V81.7101C68.1567 80.464 68.4357 79.1649 69.0382 77.7385C70.8261 74.1993 73.1731 71.0699 75.9624 68.5664C77.5005 67.1861 79.1846 65.9988 80.9815 65.049C83.1306 64.0251 85.0159 63.6306 86.7381 63.6493C86.7381 63.6493 86.7382 63.6493 86.7381 63.6494V63.6494ZM110.908 75.8901C110.907 75.8905 110.908 75.8909 110.908 75.8911C115.347 78.4779 117.663 84.1143 117.383 89.771C117.272 92.0095 116.701 94.2844 115.632 96.3763C113.183 100.089 108.664 101.383 105.824 100.482C105.814 100.479 105.806 100.471 105.802 100.461V100.461C105.795 100.443 105.805 100.422 105.823 100.416C111.292 98.3744 113.493 94.0586 113.715 89.5861C113.726 89.3756 113.731 89.1652 113.732 88.9553C113.734 88.3985 113.746 87.8414 113.777 87.2854C113.91 84.8699 113.524 82.1619 112.634 79.5859C112.195 78.3168 111.628 77.0674 110.907 75.9272C110.9 75.9158 110.9 75.9012 110.908 75.8901V75.8901V75.8901ZM79.5564 77.7568C80.8147 76.9792 81.7557 78.6324 80.8539 79.8049C79.1133 82.0678 78.2189 84.1383 77.7192 86.2164C76.9627 89.3641 77.171 92.6678 77.148 96.6036C77.1205 101.277 76.6448 106.729 73.5232 113.437V113.437C73.521 113.442 73.5155 113.445 73.5121 113.449C69.3671 118.701 64.6165 123.706 59.9738 126.676C59.9717 126.678 59.969 126.678 59.9668 126.677V126.677C59.9624 126.675 59.9614 126.669 59.9646 126.665C72.5788 112.615 73.4302 104.121 73.474 96.5789C73.4961 92.8077 73.2277 89.1936 74.1499 85.357C74.2631 84.8867 74.3939 84.4208 74.5422 83.9603C74.5427 83.9585 74.5444 83.9573 74.5463 83.9573V83.9573C74.548 83.9573 74.5495 83.9563 74.5502 83.9548C76.1419 80.6097 77.8075 78.838 79.5564 77.7568V77.7568Z" fill="white" fill-opacity="0.4"/>
</svg>
