<svg width="150" height="210" viewBox="0 0 150 210" fill="none" xmlns="http://www.w3.org/2000/svg">
<rect x="150" y="210" width="150" height="210" rx="10" transform="rotate(180 150 210)" fill="#2E2E2E" fill-opacity="0.4"/>
<path d="M58.1994 151.599C58.1995 151.599 58.1997 151.6 58.1999 151.6C63.0184 151.581 67.8316 150.571 72.1702 148.53C76.5857 146.452 80.6458 141.811 83.6465 136.24C86.6474 130.668 88.5972 124.205 89.0903 118.805C90.5495 102.813 99.1492 88.5335 119.959 69.6808C120.301 69.3706 120.505 68.9268 120.509 68.4647V68.4647C120.521 67.0726 118.912 66.2983 117.845 67.1918C105.35 77.6492 96.2136 88.0702 89.5297 98.4605C89.5275 98.4638 89.5232 98.4651 89.5196 98.4633V98.4633C89.5161 98.4617 89.5143 98.4577 89.5154 98.454C91.3423 92.0771 93.9625 86.0472 98.084 81.1789C104.175 74.2973 111.462 67.4287 120.174 60.5764C120.435 60.371 120.589 60.0577 120.592 59.7255V59.7255C120.597 59.1217 120.109 58.6294 119.505 58.6278L115.685 58.6181V58.6181C115.626 58.6181 115.568 58.6401 115.524 58.68L115.341 58.8452C110.55 62.0819 105.798 65.0231 101.088 66.9899C101.077 66.9947 101.064 66.9921 101.055 66.9834V66.9834C101.043 66.9712 101.043 66.9513 101.056 66.9396L106.496 61.9648C107.798 60.7742 106.958 58.605 105.194 58.6012V58.6012C104.729 58.6002 104.279 58.766 103.928 59.0708C94.6157 67.1556 85.7213 76.5682 78.9889 85.513C72.9476 93.5395 68.7419 101.237 67.3672 106.931C67.1285 107.92 67.3608 108.932 67.7766 109.86V109.86C71.4791 118.123 68.6167 128.803 59.8699 132.661C53.4353 135.499 45.1538 133.282 42.0901 126.503C42.0606 126.438 42.0264 126.379 41.9977 126.313C39.3825 121.586 40.7837 116.592 43.8349 114.139C45.3813 112.896 47.4605 112.267 49.487 112.85C51.0556 113.301 52.4385 114.439 53.4809 116.146C54.0092 117.011 53.5425 118.096 52.604 118.48V118.48C51.6663 118.863 50.6373 118.378 50.0325 117.566C49.4918 116.839 48.9432 116.515 48.4736 116.379C47.7446 116.17 46.9466 116.35 46.139 117C44.5237 118.298 43.3312 121.304 45.2728 124.667L45.3278 124.76L45.3711 124.858C47.4746 129.734 53.6203 131.406 58.3897 129.302C65.0864 126.348 67.3533 117.898 64.4225 111.358C60.3869 102.351 49.0938 99.3397 40.3639 103.328C28.5373 108.73 24.6106 123.627 29.9258 135.116C34.789 145.626 45.9308 151.32 57.2347 151.587C57.5556 151.594 57.8777 151.6 58.1988 151.599C58.1991 151.599 58.1993 151.599 58.1994 151.599V151.599ZM63.2619 146.351C63.2619 146.351 63.2619 146.351 63.2618 146.351C62.6253 146.344 62.011 146.282 61.4128 146.173V146.173C59.9139 145.898 60.4969 143.853 61.9967 143.583C65.5339 142.948 68.7699 141.229 71.5863 138.701C74.592 136.004 77.0757 132.369 78.7653 128.205C79.4822 126.439 81.9907 126.386 81.9015 128.29V128.29C81.8433 129.536 81.5643 130.835 80.9618 132.261C79.1739 135.801 76.8269 138.93 74.0376 141.434C72.4995 142.814 70.8154 144.001 69.0185 144.951C66.8694 145.975 64.9841 146.369 63.2619 146.351C63.2619 146.351 63.2618 146.351 63.2619 146.351V146.351ZM39.0923 134.11C39.0926 134.11 39.0925 134.109 39.0921 134.109C34.6528 131.522 32.3367 125.886 32.6174 120.229C32.7283 117.991 33.2988 115.716 34.3681 113.624C36.817 109.911 41.336 108.617 44.1758 109.518C44.1862 109.521 44.1943 109.529 44.198 109.539V109.539C44.2047 109.557 44.195 109.578 44.1768 109.584C38.7077 111.626 36.507 115.941 36.2849 120.414C36.2745 120.624 36.2688 120.835 36.2681 121.045C36.2659 121.602 36.2535 122.159 36.2229 122.715C36.0897 125.13 36.4758 127.838 37.3662 130.414C37.805 131.683 38.3725 132.933 39.0931 134.073C39.1002 134.084 39.1 134.099 39.0923 134.11V134.11V134.11ZM70.4436 132.243C69.1853 133.021 68.2443 131.368 69.1461 130.195C70.8867 127.932 71.7811 125.862 72.2808 123.784C73.0373 120.636 72.829 117.332 72.852 113.396C72.8795 108.723 73.3552 103.271 76.4768 96.5632V96.5632C76.479 96.558 76.4845 96.555 76.4879 96.5506C80.6329 91.2988 85.3835 86.294 90.0262 83.3235C90.0283 83.3222 90.031 83.322 90.0332 83.3231V83.3231C90.0376 83.3252 90.0386 83.331 90.0354 83.3346C77.4212 97.3851 76.5698 105.879 76.526 113.421C76.5039 117.192 76.7723 120.806 75.8501 124.643C75.7369 125.113 75.6061 125.579 75.4578 126.04C75.4573 126.042 75.4556 126.043 75.4537 126.043V126.043C75.452 126.043 75.4505 126.044 75.4498 126.045C73.8581 129.39 72.1925 131.162 70.4436 132.243V132.243Z" fill="white" fill-opacity="0.4"/>
</svg>
