<svg width="150" height="210" viewBox="0 0 150 210" fill="none" xmlns="http://www.w3.org/2000/svg">
<rect width="150" height="210" rx="10" fill="#2E2E2E"/>
<path d="M91.8008 58.4007C91.8007 58.4005 91.8005 58.4004 91.8003 58.4004C86.9818 58.4187 82.1687 59.4288 77.8301 61.4701C73.4145 63.5479 69.3544 68.189 66.3537 73.7605C63.3529 79.3317 61.403 85.7952 60.91 91.1952C59.4507 107.187 50.851 121.467 30.0413 140.319C29.6988 140.629 29.4954 141.073 29.4914 141.535V141.535C29.4792 142.927 31.0881 143.702 32.1556 142.808C44.6502 132.351 53.7866 121.93 60.4705 111.54C60.4727 111.536 60.477 111.535 60.4806 111.537V111.537C60.4841 111.538 60.4859 111.542 60.4849 111.546C58.658 117.923 56.0377 123.953 51.9163 128.821C45.8257 135.703 38.5382 142.571 29.8266 149.424C29.5655 149.629 29.4108 149.942 29.4083 150.274V150.274C29.4037 150.878 29.8911 151.371 30.4949 151.372L34.3149 151.382V151.382C34.3744 151.382 34.4318 151.36 34.4759 151.32L34.659 151.155C39.4506 147.918 44.2024 144.977 48.9121 143.01C48.9234 143.005 48.9364 143.008 48.9451 143.017V143.017C48.9573 143.029 48.9569 143.049 48.9441 143.06L43.5044 148.035C42.2026 149.226 43.0422 151.395 44.8064 151.399V151.399C45.2714 151.4 45.7211 151.234 46.0722 150.929C55.3846 142.844 64.2789 133.432 71.0113 124.487C77.0526 116.46 81.2583 108.763 82.6331 103.069C82.8717 102.08 82.6394 101.068 82.2236 100.14V100.14C78.5211 91.8771 81.3836 81.1974 90.1304 77.3393C96.565 74.5007 104.846 76.7176 107.91 83.4968C107.94 83.5622 107.974 83.6214 108.003 83.6874C110.618 88.4143 109.217 93.4076 106.165 95.8612C104.619 97.1044 102.54 97.733 100.513 97.1499C98.9446 96.699 97.5617 95.561 96.5193 93.8538C95.991 92.9885 96.4577 91.9036 97.3962 91.5203V91.5203C98.334 91.1374 99.363 91.6218 99.9677 92.4343C100.508 93.1608 101.057 93.4851 101.527 93.6205C102.256 93.83 103.054 93.6496 103.861 93.0002C105.476 91.7016 106.669 88.696 104.727 85.3328L104.672 85.2405L104.629 85.1423C102.526 80.2664 96.38 78.5941 91.6105 80.6976C84.9139 83.6516 82.6469 92.1018 85.5778 98.6422C89.6133 107.649 100.906 110.66 109.636 106.672C121.463 101.27 125.39 86.3734 120.074 74.8841C115.211 64.3736 104.069 58.6803 92.7655 58.4134C92.4446 58.4055 92.1225 58.3996 91.8014 58.401C91.8012 58.401 91.801 58.4009 91.8008 58.4007V58.4007ZM86.7384 63.6494C86.7383 63.6494 86.7384 63.6495 86.7384 63.6495C87.3749 63.6564 87.9893 63.7178 88.5875 63.8275V63.8275C90.0863 64.1023 89.5033 66.147 88.0035 66.4166C84.4664 67.0524 81.2304 68.771 78.414 71.2988C75.4082 73.996 72.9245 77.6312 71.2349 81.7946C70.5181 83.561 68.0096 83.6143 68.0987 81.7101V81.7101C68.1569 80.464 68.4359 79.1649 69.0385 77.7385C70.8263 74.1993 73.1733 71.0699 75.9626 68.5664C77.5008 67.1861 79.1848 65.9988 80.9817 65.049C83.1309 64.0251 85.0162 63.6306 86.7383 63.6493C86.7384 63.6493 86.7384 63.6493 86.7384 63.6494V63.6494ZM110.908 75.8901C110.908 75.8905 110.908 75.8909 110.908 75.8911C115.347 78.4779 117.664 84.1143 117.383 89.771C117.272 92.0095 116.701 94.2844 115.632 96.3763C113.183 100.089 108.664 101.383 105.824 100.482C105.814 100.479 105.806 100.471 105.802 100.461V100.461C105.796 100.443 105.805 100.422 105.823 100.416C111.293 98.3744 113.493 94.0586 113.715 89.5861C113.726 89.3756 113.731 89.1652 113.732 88.9553C113.734 88.3985 113.747 87.8414 113.777 87.2854C113.911 84.8699 113.524 82.1619 112.634 79.5859C112.195 78.3168 111.628 77.0674 110.907 75.9272C110.9 75.9158 110.9 75.9012 110.908 75.8901V75.8901V75.8901ZM79.5566 77.7568C80.815 76.9792 81.7559 78.6324 80.8541 79.8048C79.1135 82.0678 78.2191 84.1383 77.7194 86.2164C76.9629 89.3641 77.1713 92.6678 77.1483 96.6036C77.1208 101.277 76.645 106.729 73.5234 113.437V113.437C73.5213 113.442 73.5158 113.445 73.5123 113.449C69.3673 118.701 64.6168 123.706 59.974 126.676C59.9719 126.678 59.9693 126.678 59.967 126.677V126.677C59.9626 126.675 59.9616 126.669 59.9649 126.665C72.5791 112.615 73.4304 104.121 73.4743 96.5789C73.4963 92.8076 73.2279 89.1936 74.1502 85.357C74.2633 84.8867 74.3942 84.4208 74.5424 83.9603C74.543 83.9585 74.5447 83.9573 74.5465 83.9573V83.9573C74.5482 83.9573 74.5497 83.9563 74.5505 83.9548C76.1421 80.6097 77.8077 78.838 79.5566 77.7568V77.7568Z" fill="white"/>
</svg>
