<svg width="150" height="210" viewBox="0 0 150 210" fill="none" xmlns="http://www.w3.org/2000/svg">
<rect width="150" height="210" rx="10" fill="#2E2E2E"/>
<path d="M59.9992 151.4C59.9993 151.4 59.9995 151.4 59.9998 151.4C64.8182 151.382 69.6314 150.372 73.97 148.331C78.3855 146.253 82.4457 141.612 85.4463 136.04C88.4472 130.469 90.397 124.006 90.8901 118.606C92.3494 102.613 100.949 88.3342 121.759 69.4816C122.101 69.1714 122.305 68.7276 122.309 68.2655V68.2655C122.321 66.8734 120.712 66.0991 119.644 66.9926C107.15 77.45 98.0134 87.871 91.3295 98.2613C91.3273 98.2646 91.323 98.2658 91.3194 98.2641V98.2641C91.3159 98.2625 91.3141 98.2585 91.3152 98.2548C93.1421 91.8779 95.7624 85.848 99.8838 80.9797C105.974 74.0981 113.262 67.2295 121.973 60.3772C122.235 60.1718 122.389 59.8585 122.392 59.5263V59.5263C122.396 58.9225 121.909 58.4302 121.305 58.4286L117.485 58.4189V58.4189C117.426 58.4189 117.368 58.4409 117.324 58.4808L117.141 58.6459C112.349 61.8827 107.598 64.8239 102.888 66.7907C102.877 66.7955 102.864 66.7929 102.855 66.7842V66.7842C102.843 66.772 102.843 66.7521 102.856 66.7404L108.296 61.7656C109.597 60.575 108.758 58.4058 106.994 58.402V58.402C106.529 58.4009 106.079 58.5668 105.728 58.8716C96.4155 66.9564 87.5211 76.369 80.7887 85.3138C74.7474 93.3403 70.5417 101.037 69.167 106.732C68.9283 107.721 69.1607 108.733 69.5764 109.661V109.661C73.2789 117.924 70.4165 128.603 61.6697 132.461C55.2351 135.3 46.9536 133.083 43.8899 126.304C43.8604 126.239 43.8262 126.179 43.7975 126.113C41.1823 121.386 42.5835 116.393 45.6347 113.94C47.1811 112.696 49.2603 112.068 51.2868 112.651C52.8554 113.102 54.2383 114.24 55.2808 115.947C55.8091 116.812 55.3423 117.897 54.4038 118.28V118.28C53.4661 118.663 52.4371 118.179 51.8323 117.366C51.2916 116.64 50.743 116.316 50.2734 116.18C49.5444 115.971 48.7464 116.151 47.9388 116.801C46.3235 118.099 45.131 121.105 47.0726 124.468L47.1276 124.56L47.1709 124.659C49.2745 129.534 55.4201 131.207 60.1895 129.103C66.8862 126.149 69.1532 117.699 66.2223 111.159C62.1867 102.152 50.8936 99.1405 42.1638 103.129C30.3371 108.531 26.4105 123.427 31.7256 134.917C36.5889 145.427 47.7306 151.12 59.0345 151.387C59.3554 151.395 59.6775 151.401 59.9987 151.4C59.9989 151.4 59.9991 151.4 59.9992 151.4V151.4ZM65.0617 146.151C65.0617 146.151 65.0617 146.151 65.0616 146.151C64.4251 146.144 63.8108 146.083 63.2126 145.973V145.973C61.7137 145.698 62.2967 143.654 63.7966 143.384C67.3337 142.748 70.5697 141.03 73.3861 138.502C76.3918 135.805 78.8756 132.17 80.5651 128.006C81.282 126.24 83.7905 126.186 83.7013 128.091V128.091C83.6431 129.337 83.3641 130.636 82.7616 132.062C80.9737 135.601 78.6268 138.731 75.8374 141.234C74.2993 142.615 72.6152 143.802 70.8183 144.752C68.6692 145.776 66.7839 146.17 65.0617 146.152C65.0617 146.152 65.0616 146.151 65.0617 146.151V146.151ZM40.8922 133.911C40.8924 133.91 40.8923 133.91 40.8919 133.91C36.4526 131.323 34.1365 125.686 34.4172 120.03C34.5281 117.791 35.0986 115.516 36.1679 113.424C38.6168 109.711 43.1358 108.418 45.9757 109.318C45.986 109.322 45.9941 109.33 45.9978 109.34V109.34C46.0045 109.358 45.9948 109.378 45.9766 109.385C40.5075 111.426 38.3069 115.742 38.0848 120.215C38.0743 120.425 38.0687 120.636 38.0679 120.845C38.0658 121.402 38.0534 121.959 38.0227 122.515C37.8895 124.931 38.2756 127.639 39.166 130.215C39.6048 131.484 40.1723 132.733 40.8929 133.874C40.9001 133.885 40.8998 133.9 40.8922 133.911V133.911V133.911ZM72.2435 132.044C70.9851 132.822 70.0441 131.168 70.946 129.996C72.6865 127.733 73.5809 125.662 74.0806 123.584C74.8372 120.437 74.6288 117.133 74.6518 113.197C74.6793 108.524 75.1551 103.072 78.2766 96.3639V96.3639C78.2788 96.3588 78.2843 96.3558 78.2877 96.3514C82.4327 91.0995 87.1833 86.0948 91.826 83.1243C91.8282 83.123 91.8308 83.1228 91.833 83.1239V83.1239C91.8374 83.126 91.8384 83.1318 91.8352 83.1354C79.221 97.1859 78.3696 105.68 78.3258 113.222C78.3037 116.993 78.5721 120.607 77.6499 124.444C77.5367 124.914 77.4059 125.38 77.2576 125.84C77.2571 125.842 77.2554 125.844 77.2535 125.844V125.844C77.2518 125.844 77.2503 125.844 77.2496 125.846C75.6579 129.191 73.9923 130.963 72.2435 132.044V132.044Z" fill="white"/>
</svg>
