<svg width="30" height="30" viewBox="0 0 30 30" fill="none" xmlns="http://www.w3.org/2000/svg">
<path d="M1 27.5457L1.92272 26.623L4.3771 29.0773L3.45438 30L1 27.5457ZM13.8317 19.8354C13.8317 18.3615 12.636 17.1658 11.162 17.1658C9.68795 17.1658 8.49231 18.3614 8.49231 19.8354C8.49231 21.3093 9.6874 22.5043 11.1621 22.505C12.6367 22.5057 13.8324 21.31 13.8317 19.8354H13.8317ZM8.50482 20.0906L8.48028 20.0661L3.42719 25.119L5.8816 27.5733L10.9347 22.5203L10.9068 22.4924C9.63594 22.3713 8.62534 21.3607 8.50479 20.0906H8.50482ZM8.49231 19.8354C8.49231 18.453 9.54408 17.3155 10.8907 17.1794C9.47111 15.5658 8.21091 13.8111 7.12831 11.9358L3.739 15.325L8.50473 20.0905C8.49677 20.0066 8.49228 19.9215 8.49228 19.8354L8.49231 19.8354ZM13.8182 20.1076C13.6823 21.4544 12.5449 22.5057 11.1621 22.505C11.0759 22.505 10.9908 22.5005 10.9067 22.4925L15.6779 27.2635L19.0671 23.8745C17.1817 22.7857 15.4265 21.5231 13.8181 20.1076L13.8182 20.1076ZM24.9404 1.90185L12.0901 14.7517C12.2887 15.044 12.4161 15.4021 12.4161 15.779C12.4161 16.3633 12.1369 16.886 11.706 17.2214C12.7604 17.4399 13.587 18.2807 13.7855 19.3422C14.12 18.898 14.6513 18.6089 15.246 18.6089C15.6229 18.6089 15.9602 18.7155 16.2478 18.9094L29.0981 6.05959L30 1L24.9404 1.90185ZM1.44155 26.1417L4.86036 29.5604L6.3645 28.0562L2.94569 24.6375L1.44155 26.1417Z" fill="url(#paint0_linear_346_39)"/>
<defs>
<linearGradient id="paint0_linear_346_39" x1="15.5" y1="1" x2="15.5" y2="30" gradientUnits="userSpaceOnUse">
<stop stop-color="#FFD700"/>
<stop offset="1" stop-color="#DAA520"/>
</linearGradient>
</defs>
</svg>
