<svg width="49" height="49" viewBox="0 0 49 49" fill="none" xmlns="http://www.w3.org/2000/svg">
<path d="M0 44.6875L1.55328 43.1343L5.68489 47.2659L4.13162 48.8191L0 44.6875ZM21.6005 31.7079C21.6005 29.2266 19.5877 27.2137 17.1063 27.2137C14.625 27.2137 12.6123 29.2265 12.6123 31.7078C12.6123 34.189 14.6241 36.2008 17.1065 36.2019C19.5889 36.203 21.6016 34.1902 21.6005 31.7079H21.6005ZM12.6334 32.1374L12.592 32.0962L4.08585 40.6023L8.21752 44.734L16.7238 36.2277L16.6767 36.1807C14.5375 35.9768 12.8362 34.2756 12.6333 32.1374H12.6334ZM12.6123 31.7079C12.6123 29.3807 14.3828 27.4658 16.6497 27.2367C14.26 24.5203 12.1386 21.5664 10.3162 18.4096L4.61073 24.1149L12.6332 32.1373C12.6198 31.996 12.6122 31.8528 12.6122 31.7078L12.6123 31.7079ZM21.5777 32.1661C21.349 34.4333 19.4343 36.2031 17.1065 36.2019C16.9615 36.2019 16.8182 36.1943 16.6766 36.1808L24.7083 44.2125L30.4135 38.5073C27.2397 36.6744 24.2851 34.5489 21.5776 32.1661L21.5777 32.1661ZM40.3004 1.51819L18.6688 23.1499C19.003 23.642 19.2175 24.2448 19.2175 24.8793C19.2175 25.8628 18.7475 26.7427 18.0221 27.3075C19.7971 27.6751 21.1884 29.0907 21.5226 30.8776C22.0858 30.1297 22.9801 29.6431 23.9813 29.6431C24.6157 29.6431 25.1835 29.8226 25.6677 30.1489L47.2993 8.51739L48.8176 0L40.3004 1.51819ZM0.743296 42.3239L6.4984 48.079L9.03042 45.5469L3.27531 39.7918L0.743296 42.3239Z" fill="url(#paint0_linear_83_510)"/>
<defs>
<linearGradient id="paint0_linear_83_510" x1="24.4088" y1="0" x2="24.4088" y2="48.8191" gradientUnits="userSpaceOnUse">
<stop stop-color="#FFD700"/>
<stop offset="1" stop-color="#DAA520"/>
</linearGradient>
</defs>
</svg>
