<svg width="20" height="20" viewBox="0 0 20 20" fill="none" xmlns="http://www.w3.org/2000/svg">
<path d="M1.0006 17.9737H19.0011C19.1834 17.9731 19.362 17.9228 19.5178 17.8283C19.6736 17.7337 19.8007 17.5985 19.8853 17.4371C19.97 17.2757 20.009 17.0943 19.9982 16.9124C19.9875 16.7304 19.9273 16.5549 19.8241 16.4046L10.8239 3.40426C10.4509 2.86525 9.55285 2.86525 9.17883 3.40426L0.178579 16.4046C0.0744007 16.5546 0.0133083 16.7302 0.00193898 16.9124C-0.00943031 17.0947 0.0293585 17.2765 0.114091 17.4383C0.198823 17.6 0.326259 17.7354 0.482552 17.8298C0.638844 17.9242 0.818017 17.974 1.0006 17.9737Z" fill="#0FA958"/>
</svg>
