<svg width="20" height="20" viewBox="0 0 20 20" fill="none" xmlns="http://www.w3.org/2000/svg">
<path d="M9.17658 16.5701C9.26833 16.7034 9.39109 16.8123 9.5343 16.8876C9.67751 16.9629 9.83686 17.0022 9.99864 17.0022C10.1604 17.0022 10.3198 16.9629 10.463 16.8876C10.6062 16.8123 10.729 16.7034 10.8207 16.5701L19.8214 3.56912C19.9256 3.41917 19.9867 3.24353 19.9981 3.06129C20.0094 2.87905 19.9706 2.69718 19.8859 2.53544C19.8012 2.37369 19.6737 2.23827 19.5174 2.14387C19.3611 2.04947 19.1819 1.99971 18.9993 2H0.99794C0.815769 2.00075 0.63725 2.05115 0.48158 2.14578C0.32591 2.2404 0.19898 2.37567 0.114439 2.53704C0.0298985 2.6984 -0.00905387 2.87977 0.00177094 3.06162C0.0125957 3.24347 0.0727882 3.41892 0.175875 3.56912L9.17658 16.5701Z" fill="#FF0000"/>
</svg>
