<svg width="27" height="27" viewBox="0 0 27 27" fill="none" xmlns="http://www.w3.org/2000/svg">
<path d="M12.5887 2.53125C13.4662 2.5425 14.2987 3.07125 14.625 3.9375L20.25 17.3812C20.3512 17.6737 20.4075 18 20.3962 18.2812C20.3834 18.7158 20.2463 19.1375 20.001 19.4965C19.7557 19.8554 19.4127 20.1364 19.0125 20.3062L10.7212 23.7375C10.4287 23.8725 10.125 23.9062 9.83248 23.9062C9.39277 23.8965 8.96556 23.7581 8.60366 23.5082C8.24177 23.2583 7.96105 22.9078 7.79623 22.5L2.21623 9.05625C1.74373 7.92 2.29498 6.60375 3.44248 6.13125L11.7225 2.7C12.0037 2.59875 12.2962 2.53125 12.5887 2.53125ZM16.5037 2.53125H18.135C18.7317 2.53125 19.304 2.7683 19.726 3.19026C20.1479 3.61222 20.385 4.18451 20.385 4.78125V11.925L16.5037 2.53125ZM22.6462 4.26375L24.1537 4.905C24.4266 5.01612 24.6749 5.18001 24.8844 5.38729C25.0938 5.59457 25.2602 5.84116 25.3742 6.1129C25.4881 6.38465 25.5472 6.67621 25.5482 6.97087C25.5492 7.26553 25.4921 7.55749 25.38 7.83L22.6462 14.4225V4.26375ZM12.5887 4.7475L4.27498 8.20125L9.86623 21.7125L18.1912 18.27L12.5887 4.7475ZM9.73123 9.6075L13.365 12.3187L12.87 16.83L9.23623 14.1075L9.73123 9.6075Z" fill="#1E1E1E"/>
</svg>
