<svg width="30" height="30" viewBox="0 0 30 30" fill="none" xmlns="http://www.w3.org/2000/svg">
<path d="M14.93 23.4C15.42 23.4 15.8344 23.2306 16.1732 22.8918C16.512 22.553 16.6809 22.1391 16.68 21.65C16.68 21.16 16.5111 20.7456 16.1732 20.4068C15.8353 20.068 15.4209 19.8991 14.93 19.9C14.44 19.9 14.0261 20.0694 13.6882 20.4082C13.3503 20.747 13.1809 21.1609 13.18 21.65C13.18 22.14 13.3494 22.5544 13.6882 22.8932C14.027 23.232 14.4409 23.4009 14.93 23.4ZM13.67 18.01H16.26C16.26 17.24 16.3477 16.6333 16.5232 16.19C16.6987 15.7467 17.1943 15.14 18.01 14.37C18.6167 13.7633 19.095 13.1856 19.445 12.6368C19.795 12.088 19.97 11.4291 19.97 10.66C19.97 9.35333 19.4917 8.35 18.535 7.65C17.5783 6.95 16.4467 6.6 15.14 6.6C13.81 6.6 12.7306 6.95 11.9018 7.65C11.073 8.35 10.4957 9.19 10.17 10.17L12.48 11.08C12.5967 10.66 12.8594 10.205 13.2682 9.715C13.677 9.225 14.3009 8.98 15.14 8.98C15.8867 8.98 16.4467 9.1844 16.82 9.5932C17.1933 10.002 17.38 10.4509 17.38 10.94C17.38 11.4067 17.24 11.8444 16.96 12.2532C16.68 12.662 16.33 13.0409 15.91 13.39C14.8833 14.3 14.2533 14.9883 14.02 15.455C13.7867 15.9217 13.67 16.7733 13.67 18.01ZM15 29C13.0633 29 11.2433 28.6323 9.54 27.8968C7.83667 27.1613 6.355 26.1641 5.095 24.905C3.835 23.645 2.83773 22.1633 2.1032 20.46C1.36867 18.7567 1.00093 16.9367 1 15C1 13.0633 1.36773 11.2433 2.1032 9.54C2.83867 7.83667 3.83593 6.355 5.095 5.095C6.355 3.835 7.83667 2.83773 9.54 2.1032C11.2433 1.36867 13.0633 1.00093 15 1C16.9367 1 18.7567 1.36773 20.46 2.1032C22.1633 2.83867 23.645 3.83593 24.905 5.095C26.165 6.355 27.1627 7.83667 27.8982 9.54C28.6337 11.2433 29.0009 13.0633 29 15C29 16.9367 28.6323 18.7567 27.8968 20.46C27.1613 22.1633 26.1641 23.645 24.905 24.905C23.645 26.165 22.1633 27.1627 20.46 27.8982C18.7567 28.6337 16.9367 29.0009 15 29Z" fill="#2E2E2E"/>
</svg>
