<svg width="143" height="143" viewBox="0 0 143 143" fill="none" xmlns="http://www.w3.org/2000/svg">
<g opacity="0.7">
<path opacity="0.5" d="M70.4164 6.01047L18.7576 23.2934L11.4065 27.5275L10.4792 55.2784L17.1265 103.731L51.6588 122.388L73.6674 130.32L89.9001 123.673L128.074 106.166C128.074 106.166 131.806 105.865 130.063 100.156C128.32 94.447 130.532 40.5651 130.532 40.5651L130.733 27.628C130.733 27.628 130.711 24.5781 120.6 22.3661C110.49 20.1541 70.4164 6.01047 70.4164 6.01047Z" fill="white"/>
<path opacity="0.7" d="M10.401 28.8458L71.2319 56.6638L129.616 30.0747C129.616 30.0747 129.918 100.983 129.002 101.295C128.544 101.452 71.8463 79.2868 71.8463 79.2868L16.2215 101.295L10.7138 40.1517L10.401 28.8458Z" fill="#7EC8EE"/>
<path opacity="0.7" d="M73.6785 130.32L45.2461 119.93L17.1265 103.731L16.2104 101.284L69.7013 77.1306L129.002 101.284L128.086 106.178L103.943 117.785L73.6785 130.32Z" fill="#63ABDE"/>
<path opacity="0.7" d="M70.3158 5.60828L17.1265 23.6397L10.401 28.8458L19.5731 33.1246L68.7852 54.5187L72.7624 53.9043L129.616 26.7008L70.3158 5.60828Z" fill="#B0E4FF"/>
<path d="M130.532 100.089C128.856 98.413 95.0615 84.7834 88.6041 81.9457C82.1468 79.108 79.2979 77.2982 78.1361 74.4494C76.9742 71.6006 74.6504 23.2822 74.6504 20.1876C74.6504 17.093 74.2818 8.0661 70.785 8.05493C67.9138 8.04376 67.2994 16.2551 67.2994 20.5563C67.2994 24.8574 66.1486 70.6174 65.0873 74.5723C63.7914 79.4432 51.6364 83.4763 41.1907 88.3919C30.7338 93.3075 16.7913 97.1395 16.2104 101.273C15.6406 105.407 18.5118 106.434 23.8408 110.121C26.0193 111.629 32.9682 115.517 41.0566 119.528C52.7759 125.337 66.9307 131.169 72.7624 131.27C80.9737 131.415 93.084 124.756 105.909 118.757C118.5 112.869 129.75 108.144 130.655 105.954C132.052 102.591 132.219 101.765 130.532 100.089ZM104.882 114.244C96.5026 118.064 76.9742 126.644 72.4496 127.035C67.925 127.426 51.7593 119.751 44.5422 116.31C36.3979 112.434 20.6456 104.289 21.5393 102.223C22.4443 100.156 32.2643 96.7931 45.827 91.2407C59.3897 85.6883 71.5335 81.0296 71.5335 81.0296C71.5335 81.0296 79.9347 84.0237 94.6593 90.3358C109.127 96.5362 126.052 103.898 126.052 103.898C126.052 103.898 115.093 109.585 104.882 114.244Z" fill="#37B4E2"/>
<path d="M71.0084 4.37937C66.4168 3.74257 56.8425 8.69171 43.749 13.1605C29.773 17.9309 17.9867 21.1148 13.8754 23.1705C10.4904 24.8686 8.79224 27.6392 8.63583 31.3371C8.4906 35.0238 8.17779 45.4919 10.9484 72.282C11.7975 80.4375 14.8921 101.173 15.2943 102.636C17.3611 110.155 20.802 104.77 20.0311 98.9158C19.4837 94.7822 17.7186 85.3643 16.1768 69.5002C14.6351 53.6362 13.0934 33.6273 14.4787 30.2311C15.864 26.8348 24.7457 24.2206 30.9572 22.3773C50.2064 16.6796 67.2993 9.13859 70.9972 9.13859C74.6951 9.13859 99.7872 18.2213 103.954 19.763C108.11 21.3048 125.974 26.388 126.901 28.8458C127.829 31.3036 127.058 94.2906 127.214 97.6757C127.371 101.061 126.488 105.306 128.99 105.764C131.504 106.211 132.141 101.988 132.141 99.061C132.141 96.134 131.985 68.1149 132.297 55.3343C132.61 42.5537 134.61 30.0859 131.068 25.6171C127.527 21.1484 116.59 18.8469 98.4242 12.5237C87.0959 8.60234 75.466 4.99382 71.0084 4.37937Z" fill="#58C4FD"/>
<path d="M17.1153 33.1693L70.6956 57.658L73.4662 126.03L67.4781 127.404L26.6561 109.239L17.1265 103.731L10.7138 40.1517L12.1773 30.8679L17.1153 33.1693Z" fill="url(#paint0_radial_541_208)"/>
<path d="M72.0809 57.9709L73.1646 128.957L121.662 109.395L128.901 104.312L128.488 98.1449L130.744 27.6281L123.36 29.4826L72.0809 57.9709Z" fill="url(#paint1_radial_541_208)"/>
<path d="M17.7297 34.8563L46.6761 48.0949L70.9302 57.8703L127.985 29.1586L129.303 27.9185L70.0141 6.82602L15.4172 24.5334L9.87592 28.5441L10.0323 32.0856L17.7297 34.8563Z" fill="url(#paint2_radial_541_208)"/>
<path d="M8.72523 114.087C9.74187 116.88 12.9705 120.254 19.5396 121.293C24.9691 122.153 28.4324 121.17 31.0466 119.628C33.4151 118.232 34.1077 115.059 34.0072 113.607C33.8731 111.786 31.9627 109.093 29.7619 107.965C27.5498 106.825 8.0214 112.166 8.72523 114.087Z" fill="#37B5E1"/>
<path d="M13.4063 104.949C9.78658 107.049 6.08869 111.775 9.37322 115.059C12.6578 118.344 24.8128 119.204 29.4826 114.947C34.1636 110.702 28.6224 106.133 24.8574 104.457C21.0925 102.781 17.1153 102.792 13.4063 104.949Z" fill="#B0E3FD"/>
<path d="M12.222 108.713C10.859 108.803 8.7699 111.909 12.0656 114.199C16.1545 117.048 21.8522 115.327 21.4723 113.607C21.0925 111.886 17.1153 111.998 15.5065 111.082C13.8866 110.166 13.7749 108.602 12.222 108.713Z" fill="#FDFEFE"/>
<path d="M32.0745 132.253C30.9461 134.789 32.1303 137.716 37.2805 138.989C45.3466 140.978 50.4969 138.096 52.2173 136.431C53.9378 134.766 54.1501 132.13 53.234 131.27C52.3179 130.42 32.0745 132.253 32.0745 132.253Z" fill="#37B5E1"/>
<path d="M41.8498 127.158C35.3478 127.493 32.3984 130.677 32.1303 132.186C31.8622 133.694 35.0126 136.599 42.1738 136.252C51.9045 135.783 53.4686 131.571 53.4686 131.571C53.4686 131.571 51.156 126.678 41.8498 127.158Z" fill="#B0E4FF"/>
<path d="M39.973 129.951C38.61 129.069 36.5879 129.627 35.3478 130.487C34.3535 131.18 33.8508 132.8 34.5434 133.66C35.6718 135.057 37.9285 134.632 39.2803 133.772C40.6098 132.912 41.47 130.923 39.973 129.951ZM29.5049 24.2988C27.561 21.4388 19.7631 24.5446 16.769 26.1869C13.7749 27.8291 12.0209 29.9071 12.3226 32.2197C12.6242 34.5323 16.5232 35.6941 20.7909 37.5822C25.0585 39.4702 57.5128 54.2283 59.9595 55.5466C63.4451 57.4346 67.1877 59.8589 68.3049 67.1765C69.031 71.9916 71.0308 118.221 71.109 119.807C71.2877 123.561 70.9638 129.002 73.2317 128.912C75.2203 128.834 74.8181 123.885 74.7622 119.74C74.7063 115.595 75.1085 70.528 75.1197 67.4781C75.142 63.6685 76.371 59.3785 78.9293 57.1218C81.4877 54.8651 86.3474 52.0051 92.1121 49.0669C99.0163 45.5589 114.422 37.9844 120.265 35.3702C126.108 32.7559 129.46 31.9627 129.46 29.0916C129.46 26.2204 116.176 22.2655 114.601 22.1427C113.015 22.0198 111.317 22.5672 111.674 24.5223C112.043 26.4662 113.529 29.7842 110.546 32.3984C107.563 35.0127 101.105 38.5653 97.4188 40.4198C91.062 43.6038 75.7342 51.6923 70.4945 51.3236C65.2549 50.9549 61.9704 50.0388 54.1054 46.7543C46.2516 43.4698 36.8002 38.7105 32.175 36.2192C28.8905 34.4429 26.6338 31.8287 26.8125 29.0916C27.0136 26.3656 31.1919 26.7678 29.5049 24.2988ZM48.877 17.7186C49.6255 19.6513 56.3733 17.6627 59.602 16.6796C62.8306 15.7077 68.3719 13.9425 71.6676 13.7526C74.9521 13.5738 85.9788 16.9254 88.7829 17.4728C91.587 18.0202 94.0225 18.1431 94.6258 17.1712C95.2291 16.1992 91.2742 14.0654 85.733 12.1773C80.1917 10.2893 73.7344 7.30641 70.9861 7.66391C68.1485 8.04375 62.0598 10.8255 57.2224 12.5348C54.2953 13.5738 47.9609 15.339 48.877 17.7186Z" fill="white"/>
</g>
<defs>
<radialGradient id="paint0_radial_541_208" cx="0" cy="0" r="1" gradientUnits="userSpaceOnUse" gradientTransform="translate(69.0888 65.547) rotate(140.604) scale(51.5811 68.7759)">
<stop offset="0.1" stop-color="white" stop-opacity="0.9"/>
<stop offset="1" stop-color="#FCFCFC" stop-opacity="0"/>
</radialGradient>
<radialGradient id="paint1_radial_541_208" cx="0" cy="0" r="1" gradientUnits="userSpaceOnUse" gradientTransform="translate(77.6037 60.1551) rotate(34.3686) scale(61.0348 72.2726)">
<stop offset="0.152" stop-color="#32AFE0" stop-opacity="0.9"/>
<stop offset="0.963" stop-color="#32AFE0" stop-opacity="0"/>
</radialGradient>
<radialGradient id="paint2_radial_541_208" cx="0" cy="0" r="1" gradientUnits="userSpaceOnUse" gradientTransform="translate(71.107 55.2797) rotate(-90.1146) scale(52.6733 107.933)">
<stop offset="0.256" stop-color="#67CCF9" stop-opacity="0.9"/>
<stop offset="0.416" stop-color="#6CCDF9" stop-opacity="0.674"/>
<stop offset="0.616" stop-color="#7CD1F9" stop-opacity="0.392"/>
<stop offset="0.837" stop-color="#95D8F9" stop-opacity="0.081"/>
<stop offset="0.895" stop-color="#9DDAF9" stop-opacity="0"/>
</radialGradient>
</defs>
</svg>
