<svg width="35" height="35" viewBox="0 0 35 35" fill="none" xmlns="http://www.w3.org/2000/svg">
<g clip-path="url(#clip0_407_57)">
<path d="M17.415 27.7C18.01 27.7 18.5132 27.4943 18.9246 27.0829C19.336 26.6715 19.5411 26.1689 19.54 25.575C19.54 24.98 19.3349 24.4768 18.9246 24.0654C18.5143 23.654 18.0111 23.4489 17.415 23.45C16.82 23.45 16.3174 23.6557 15.9071 24.0671C15.4968 24.4785 15.2911 24.9811 15.29 25.575C15.29 26.17 15.4957 26.6732 15.9071 27.0846C16.3185 27.496 16.8211 27.7011 17.415 27.7ZM15.885 21.155H19.03C19.03 20.22 19.1365 19.4833 19.3496 18.945C19.5627 18.4067 20.1645 17.67 21.155 16.735C21.8917 15.9983 22.4725 15.2968 22.8975 14.6304C23.3225 13.964 23.535 13.1639 23.535 12.23C23.535 10.6433 22.9542 9.425 21.7925 8.575C20.6308 7.725 19.2567 7.3 17.67 7.3C16.055 7.3 14.7443 7.725 13.7379 8.575C12.7315 9.425 12.0305 10.445 11.635 11.635L14.44 12.74C14.5817 12.23 14.9007 11.6775 15.3971 11.0825C15.8935 10.4875 16.6511 10.19 17.67 10.19C18.5767 10.19 19.2567 10.4382 19.71 10.9346C20.1633 11.431 20.39 11.9761 20.39 12.57C20.39 13.1367 20.22 13.6682 19.88 14.1646C19.54 14.661 19.115 15.1211 18.605 15.545C17.3583 16.65 16.5933 17.4858 16.31 18.0525C16.0267 18.6192 15.885 19.6533 15.885 21.155ZM17.5 34.5C15.1483 34.5 12.9383 34.0535 10.87 33.1604C8.80167 32.2673 7.0025 31.0564 5.4725 29.5275C3.9425 27.9975 2.73153 26.1983 1.8396 24.13C0.947667 22.0617 0.501133 19.8517 0.5 17.5C0.5 15.1483 0.946533 12.9383 1.8396 10.87C2.73267 8.80167 3.94363 7.0025 5.4725 5.4725C7.0025 3.9425 8.80167 2.73153 10.87 1.8396C12.9383 0.947667 15.1483 0.501133 17.5 0.5C19.8517 0.5 22.0617 0.946533 24.13 1.8396C26.1983 2.73267 27.9975 3.94363 29.5275 5.4725C31.0575 7.0025 32.269 8.80167 33.1621 10.87C34.0552 12.9383 34.5011 15.1483 34.5 17.5C34.5 19.8517 34.0535 22.0617 33.1604 24.13C32.2673 26.1983 31.0564 27.9975 29.5275 29.5275C27.9975 31.0575 26.1983 32.269 24.13 33.1621C22.0617 34.0552 19.8517 34.5011 17.5 34.5Z" fill="#2E2E2E"/>
</g>
<defs>
<clipPath id="clip0_407_57">
<rect width="35" height="35" fill="white"/>
</clipPath>
</defs>
</svg>
