<svg width="35" height="35" viewBox="0 0 35 35" fill="none" xmlns="http://www.w3.org/2000/svg">
<path d="M29.1645 6.5625H8.23009C7.95097 6.55854 7.67554 6.4981 7.42041 6.3848C7.16528 6.27151 6.93575 6.10771 6.74564 5.9033C6.55554 5.69889 6.4088 5.45809 6.31429 5.19542C6.21978 4.93276 6.17944 4.65368 6.19571 4.375C6.19435 3.82042 6.40369 3.28602 6.78136 2.87992C7.15904 2.47381 7.67687 2.22632 8.23009 2.1875H29.1645C29.4545 2.1875 29.7327 2.07227 29.9379 1.86715C30.143 1.66203 30.2582 1.38383 30.2582 1.09375C30.2582 0.803669 30.143 0.52547 29.9379 0.320352C29.7327 0.115234 29.4545 0 29.1645 0H8.23009C7.09651 0.0396993 6.02266 0.518103 5.23502 1.33431C4.44738 2.15052 4.00752 3.24073 4.00821 4.375C3.99726 4.55348 3.99726 4.73246 4.00821 4.91094C3.99768 4.99812 3.99768 5.08625 4.00821 5.17344V30.625C4.00752 31.7593 4.44738 32.8495 5.23502 33.6657C6.02266 34.4819 7.09651 34.9603 8.23009 35H29.1645C29.4545 35 29.7327 34.8848 29.9379 34.6796C30.143 34.4745 30.2582 34.1963 30.2582 33.9062V7.73281C30.2589 7.43525 30.1461 7.14861 29.9429 6.93121C29.7398 6.71381 29.4614 6.58197 29.1645 6.5625Z" fill="#222222"/>
</svg>
