<svg width="30" height="30" viewBox="0 0 30 30" fill="none" xmlns="http://www.w3.org/2000/svg">
<path d="M24.9981 5.625H7.05438C6.81513 5.62161 6.57905 5.5698 6.36037 5.47269C6.14169 5.37558 5.94494 5.23518 5.782 5.05997C5.61905 4.88476 5.49328 4.67836 5.41227 4.45322C5.33125 4.22808 5.29668 3.98886 5.31063 3.75C5.30946 3.27465 5.48889 2.81659 5.81261 2.4685C6.13634 2.12041 6.58019 1.90827 7.05438 1.875H24.9981C25.2468 1.875 25.4852 1.77623 25.661 1.60041C25.8369 1.4246 25.9356 1.18614 25.9356 0.9375C25.9356 0.68886 25.8369 0.450403 25.661 0.274587C25.4852 0.098772 25.2468 0 24.9981 0H7.05438C6.08274 0.034028 5.1623 0.444088 4.48718 1.1437C3.81206 1.8433 3.43503 2.77777 3.43563 3.75C3.42624 3.90298 3.42624 4.05639 3.43563 4.20937C3.4266 4.2841 3.4266 4.35965 3.43563 4.43438V26.25C3.43503 27.2222 3.81206 28.1567 4.48718 28.8563C5.1623 29.5559 6.08274 29.966 7.05438 30H24.9981C25.2468 30 25.4852 29.9012 25.661 29.7254C25.8369 29.5496 25.9356 29.3111 25.9356 29.0625V6.62812C25.9362 6.37307 25.8395 6.12738 25.6654 5.94104C25.4912 5.75469 25.2526 5.64169 24.9981 5.625Z" fill="#222222"/>
</svg>
