<svg width="30" height="30" viewBox="0 0 30 30" fill="none" xmlns="http://www.w3.org/2000/svg">
<path fill-rule="evenodd" clip-rule="evenodd" d="M5.2 1C4.08609 1 3.0178 1.4425 2.23015 2.23015C1.4425 3.0178 1 4.08609 1 5.2V24.8C1 25.9139 1.4425 26.9822 2.23015 27.7698C3.0178 28.5575 4.08609 29 5.2 29H17.8V22C17.8 20.8861 18.2425 19.8178 19.0302 19.0302C19.8178 18.2425 20.8861 17.8 22 17.8H29V5.2C29 4.08609 28.5575 3.0178 27.7698 2.23015C26.9822 1.4425 25.9139 1 24.8 1H5.2ZM22.4102 27.7694C21.9069 28.2726 21.284 28.6397 20.6 28.8362V22C20.6 21.6287 20.7475 21.2726 21.0101 21.0101C21.2726 20.7475 21.6287 20.6 22 20.6H28.8362C28.6397 21.284 28.2726 21.9069 27.7694 22.4102L22.4102 27.7694ZM8 6.6C7.6287 6.6 7.2726 6.7475 7.01005 7.01005C6.7475 7.2726 6.6 7.6287 6.6 8C6.6 8.3713 6.7475 8.7274 7.01005 8.98995C7.2726 9.2525 7.6287 9.4 8 9.4H22C22.3713 9.4 22.7274 9.2525 22.99 8.98995C23.2525 8.7274 23.4 8.3713 23.4 8C23.4 7.6287 23.2525 7.2726 22.99 7.01005C22.7274 6.7475 22.3713 6.6 22 6.6H8ZM8 12.2C7.6287 12.2 7.2726 12.3475 7.01005 12.6101C6.7475 12.8726 6.6 13.2287 6.6 13.6C6.6 13.9713 6.7475 14.3274 7.01005 14.5899C7.2726 14.8525 7.6287 15 8 15H22C22.3713 15 22.7274 14.8525 22.99 14.5899C23.2525 14.3274 23.4 13.9713 23.4 13.6C23.4 13.2287 23.2525 12.8726 22.99 12.6101C22.7274 12.3475 22.3713 12.2 22 12.2H8ZM8 17.8C7.6287 17.8 7.2726 17.9475 7.01005 18.2101C6.7475 18.4726 6.6 18.8287 6.6 19.2C6.6 19.5713 6.7475 19.9274 7.01005 20.1899C7.2726 20.4525 7.6287 20.6 8 20.6H13.6C13.9713 20.6 14.3274 20.4525 14.5899 20.1899C14.8525 19.9274 15 19.5713 15 19.2C15 18.8287 14.8525 18.4726 14.5899 18.2101C14.3274 17.9475 13.9713 17.8 13.6 17.8H8Z" fill="#222222"/>
</svg>
