<svg width="35" height="35" viewBox="0 0 35 35" fill="none" xmlns="http://www.w3.org/2000/svg">
<g clip-path="url(#clip0_407_54)">
<path d="M30.144 19.183L30.127 19.217C30.195 18.656 30.263 18.078 30.263 17.5C30.263 16.922 30.212 16.378 30.144 15.817L30.161 15.851L34.309 12.587L30.178 5.413L25.299 7.385L25.316 7.402C24.432 6.722 23.463 6.144 22.409 5.702H22.426L21.644 0.5H13.365L12.617 5.719H12.634C11.58 6.161 10.611 6.739 9.72695 7.419L9.74395 7.402L4.84795 5.413L0.699951 12.587L4.84795 15.851L4.86495 15.817C4.79695 16.378 4.74595 16.922 4.74595 17.5C4.74595 18.078 4.79695 18.656 4.88195 19.217L4.86495 19.183L1.29495 21.988L0.733952 22.43L4.86495 29.57L9.76095 27.615L9.72695 27.547C10.628 28.244 11.597 28.822 12.668 29.264H12.617L13.382 34.5H21.627C21.627 34.5 21.678 34.194 21.729 33.786L22.375 29.281H22.358C23.412 28.839 24.398 28.261 25.299 27.564L25.265 27.632L30.161 29.587L34.292 22.447C34.292 22.447 34.054 22.243 33.731 22.005L30.144 19.183ZM17.496 23.45C14.215 23.45 11.546 20.781 11.546 17.5C11.546 14.219 14.215 11.55 17.496 11.55C20.777 11.55 23.446 14.219 23.446 17.5C23.446 20.781 20.777 23.45 17.496 23.45Z" fill="#2E2E2E"/>
</g>
<defs>
<clipPath id="clip0_407_54">
<rect width="35" height="35" fill="white"/>
</clipPath>
</defs>
</svg>
