<svg width="30" height="30" viewBox="0 0 30 30" fill="none" xmlns="http://www.w3.org/2000/svg">
<g clip-path="url(#clip0_407_54)">
<path d="M25.8377 16.4427L25.8231 16.4719C25.8814 15.991 25.9397 15.4956 25.9397 15.0001C25.9397 14.5047 25.896 14.0384 25.8377 13.5576L25.8523 13.5867L29.4077 10.789L25.8668 4.63985L21.6848 6.33014L21.6994 6.34471C20.9417 5.76185 20.1111 5.26643 19.2077 4.88757H19.2223L18.552 0.428711H11.4557L10.8145 4.90214H10.8291C9.92569 5.281 9.09512 5.77643 8.3374 6.35928L8.35198 6.34471L4.1554 4.63985L0.599976 10.789L4.1554 13.5867L4.16998 13.5576C4.11169 14.0384 4.06798 14.5047 4.06798 15.0001C4.06798 15.4956 4.11169 15.991 4.18455 16.4719L4.16998 16.4427L1.10998 18.847L0.629119 19.2259L4.16998 25.3459L8.36655 23.6701L8.3374 23.6119C9.10969 24.2093 9.94026 24.7047 10.8583 25.0836H10.8145L11.4703 29.5716H18.5374C18.5374 29.5716 18.5811 29.3093 18.6248 28.9596L19.1785 25.0981H19.164C20.0674 24.7193 20.9125 24.2239 21.6848 23.6264L21.6557 23.6847L25.8523 25.3604L29.3931 19.2404C29.3931 19.2404 29.1891 19.0656 28.9123 18.8616L25.8377 16.4427ZM14.9965 20.1001C12.1843 20.1001 9.89655 17.8124 9.89655 15.0001C9.89655 12.1879 12.1843 9.90014 14.9965 9.90014C17.8088 9.90014 20.0965 12.1879 20.0965 15.0001C20.0965 17.8124 17.8088 20.1001 14.9965 20.1001Z" fill="#2E2E2E"/>
</g>
<defs>
<clipPath id="clip0_407_54">
<rect width="30" height="30" fill="white"/>
</clipPath>
</defs>
</svg>
