<svg width="24" height="24" viewBox="0 0 24 24" fill="none" xmlns="http://www.w3.org/2000/svg">
<path d="M6 4H4V2H20V4H18V6C18 7.615 17.184 8.915 16.156 9.977C15.453 10.703 14.598 11.372 13.731 12C14.598 12.628 15.453 13.297 16.156 14.023C17.184 15.085 18 16.385 18 18V20H20V22H4V20H6V18C6 16.385 6.816 15.085 7.844 14.023C8.547 13.297 9.402 12.628 10.269 12C9.402 11.372 8.547 10.703 7.844 9.977C6.816 8.915 6 7.615 6 6V4ZM8 4V6C8 6.685 8.26 7.335 8.771 8H15.229C15.739 7.335 16 6.685 16 6V4H8ZM12 13.222C10.955 13.96 10.008 14.663 9.281 15.414C9.10028 15.5997 8.93002 15.7954 8.771 16H15.229C15.07 15.7954 14.8997 15.5997 14.719 15.414C13.992 14.663 13.045 13.96 12 13.222Z" fill="#1E1E1E"/>
</svg>
