<svg width="154" height="218" viewBox="0 0 154 218" fill="none" xmlns="http://www.w3.org/2000/svg">
<g filter="url(#filter0_d_394_150)">
<rect x="6.91119" y="7.00293" width="143.089" height="202.997" rx="10" fill="#2E2E2E"/>
<path d="M94.4824 63.4554C94.4822 63.4552 94.4821 63.4551 94.4818 63.4551C89.8854 63.4728 85.294 64.4492 81.1553 66.4224C76.9432 68.4309 73.0701 72.9172 70.2077 78.3029C67.3451 83.6884 65.4851 89.9363 65.0148 95.1562C63.6227 110.616 55.4183 124.42 35.5648 142.645C35.2401 142.943 35.0477 143.367 35.0439 143.808V143.808C35.0323 145.151 36.5888 145.893 37.6131 145.024C49.5177 134.924 58.2246 124.858 64.5956 114.822C64.5977 114.819 64.6018 114.818 64.6053 114.819V114.819C64.6086 114.821 64.6103 114.825 64.6093 114.828C62.8666 120.992 60.367 126.821 56.4355 131.527C50.6258 138.179 43.6744 144.818 35.3647 151.442C35.1147 151.641 34.9669 151.943 34.9645 152.262V152.262C34.9602 152.848 35.4326 153.325 36.0178 153.326L39.6451 153.336V153.336C39.7018 153.336 39.7565 153.314 39.7983 153.276L39.9733 153.116C44.544 149.988 49.0768 147.144 53.5693 145.243C53.5803 145.239 53.593 145.241 53.6014 145.25V145.25C53.613 145.261 53.6126 145.28 53.6005 145.291L48.3812 150.128C47.1424 151.276 47.9521 153.348 49.6412 153.352V153.352C50.0922 153.353 50.5282 153.191 50.8667 152.893C59.7478 145.079 68.23 135.982 74.6507 127.338C80.4148 119.577 84.4272 112.136 85.7378 106.63C85.965 105.676 85.7431 104.7 85.3464 103.802V103.802C81.8145 95.8153 84.5451 85.4918 92.8889 81.7624C99.027 79.0184 106.927 81.1614 109.849 87.7145C109.878 87.7778 109.91 87.8349 109.938 87.8987C112.432 92.468 111.096 97.2948 108.185 99.6666C106.71 100.868 104.726 101.476 102.793 100.912C101.289 100.474 99.9634 99.3644 98.9671 97.6989C98.473 96.8729 98.9155 95.8447 99.8049 95.4767V95.4767C100.705 95.1041 101.697 95.5702 102.274 96.3553C102.789 97.0567 103.312 97.3698 103.76 97.5007C104.455 97.7031 105.217 97.5288 105.987 96.901C107.528 95.6458 108.666 92.7403 106.813 89.4893L106.761 89.4001L106.72 89.3051C104.713 84.5919 98.8505 82.9753 94.3008 85.0087C87.9127 87.8642 85.7502 96.0326 88.546 102.355C92.3956 111.061 103.168 113.972 111.496 110.117C122.778 104.895 126.524 90.4952 121.453 79.3891C116.814 69.2291 106.186 63.7257 95.4026 63.4676C95.0965 63.46 94.7892 63.4543 94.4829 63.4556C94.4827 63.4556 94.4825 63.4555 94.4824 63.4554V63.4554ZM89.6532 68.529C89.6531 68.5291 89.6531 68.5291 89.6532 68.5291C90.2604 68.5358 90.8464 68.5952 91.417 68.7012V68.7012C92.8601 68.9693 92.29 70.9422 90.8463 71.2065C87.4775 71.8231 84.3953 73.4832 81.7123 75.9233C78.8455 78.5302 76.4765 82.0434 74.8648 86.0672C74.1865 87.7607 71.7881 87.8098 71.8723 85.9874V85.9874C71.9278 84.7829 72.194 83.5271 72.7688 82.1483C74.4742 78.7271 76.7131 75.7021 79.3739 73.282C80.8412 71.9478 82.4476 70.8001 84.1617 69.8819C86.2119 68.8922 88.0103 68.5109 89.6531 68.5289C89.6532 68.5289 89.6532 68.529 89.6532 68.529V68.529ZM112.709 80.3616C112.709 80.3619 112.709 80.3623 112.709 80.3625C116.944 82.863 119.153 88.3114 118.886 93.7794C118.78 95.9433 118.236 98.1423 117.216 100.165C114.88 103.754 110.569 105.004 107.86 104.134C107.85 104.13 107.842 104.123 107.839 104.113V104.113C107.832 104.095 107.842 104.076 107.859 104.069C113.076 102.096 115.175 97.924 115.387 93.6008C115.397 93.4029 115.402 93.2052 115.403 93.0079C115.406 92.4584 115.418 91.9086 115.447 91.3598C115.572 89.0292 115.203 86.4181 114.356 83.9341C113.937 82.7072 113.396 81.4995 112.708 80.3973C112.702 80.3863 112.702 80.3723 112.709 80.3616V80.3616V80.3616ZM82.8023 82.166C84.007 81.4116 84.9169 82.9934 84.0561 84.1245C82.3852 86.3202 81.528 88.3282 81.0497 90.3435C80.3281 93.3862 80.5269 96.5797 80.5049 100.384C80.4787 104.902 80.0248 110.172 77.0471 116.656V116.656C77.045 116.661 77.0398 116.664 77.0365 116.668C73.0825 121.745 68.5508 126.583 64.122 129.454C64.12 129.455 64.1174 129.456 64.1152 129.455V129.455C64.1111 129.453 64.1101 129.447 64.1131 129.444C76.1462 115.862 76.9584 107.651 77.0002 100.36C77.0212 96.7149 76.7652 93.2213 77.645 89.5127C77.7529 89.058 77.8777 88.6077 78.0191 88.1625C78.0197 88.1608 78.0213 88.1597 78.023 88.1597V88.1597C78.0246 88.1597 78.0261 88.1587 78.0268 88.1573C79.5451 84.9237 81.134 83.2111 82.8023 82.166V82.166Z" fill="white"/>
</g>
<rect x="6.14325" y="6.22363" width="143.089" height="202.997" rx="10" fill="#2E2E2E"/>
<path d="M93.7144 62.6761C93.7143 62.6759 93.7141 62.6758 93.7139 62.6758C89.1174 62.6935 84.526 63.6699 80.3874 65.6431C76.1752 67.6516 72.3022 72.1379 69.4398 77.5236C66.5772 82.9091 64.7172 89.157 64.2469 94.3769C62.8547 109.837 54.6504 123.64 34.7968 141.866C34.4721 142.164 34.2798 142.588 34.2759 143.028V143.028C34.2643 144.372 35.8209 145.114 36.8451 144.245C48.7498 134.144 57.4567 124.079 63.8277 114.043C63.8297 114.039 63.8339 114.038 63.8373 114.04V114.04C63.8407 114.042 63.8424 114.045 63.8413 114.049C62.0986 120.213 59.5991 126.042 55.6675 130.748C49.8578 137.4 42.9065 144.039 34.5967 150.663C34.3467 150.862 34.199 151.164 34.1966 151.483V151.483C34.1923 152.068 34.6646 152.545 35.2499 152.547L38.8772 152.556V152.556C38.9339 152.556 38.9885 152.535 39.0304 152.497L39.2054 152.337C43.7761 149.208 48.3088 146.365 52.8014 144.464C52.8124 144.459 52.8251 144.462 52.8335 144.47V144.47C52.845 144.482 52.8446 144.501 52.8325 144.512L47.6133 149.349C46.3744 150.497 47.1842 152.569 48.8733 152.573V152.573C49.3243 152.574 49.7602 152.411 50.0988 152.113C58.9799 144.299 67.4621 135.203 73.8828 126.558C79.6469 118.798 83.6593 111.356 84.9699 105.851C85.197 104.897 84.9751 103.92 84.5785 103.023V103.023C81.0466 95.036 83.7771 84.7125 92.1209 80.9831C98.259 78.2391 106.159 80.3821 109.082 86.9352C109.11 86.9985 109.142 87.0556 109.17 87.1194C111.664 91.6887 110.328 96.5155 107.417 98.8873C105.942 100.089 103.959 100.697 102.025 100.133C100.521 99.6948 99.1954 98.5851 98.1992 96.9196C97.705 96.0936 98.1476 95.0654 99.037 94.6974V94.6974C99.9373 94.3248 100.929 94.7909 101.506 95.576C102.021 96.2774 102.544 96.5905 102.992 96.7214C103.688 96.9238 104.449 96.7495 105.219 96.1217C106.76 94.8665 107.898 91.961 106.045 88.71L105.993 88.6208L105.952 88.5258C103.945 83.8126 98.0826 82.196 93.5329 84.2294C87.1448 87.0849 84.9822 95.2533 87.7781 101.575C91.6277 110.281 102.4 113.193 110.728 109.338C122.01 104.115 125.756 89.7159 120.685 78.6098C116.046 68.4498 105.418 62.9464 94.6347 62.6883C94.3285 62.6807 94.0213 62.675 93.7149 62.6763C93.7147 62.6764 93.7145 62.6762 93.7144 62.6761V62.6761ZM88.8852 67.7497C88.8852 67.7498 88.8852 67.7498 88.8852 67.7498C89.4925 67.7565 90.0785 67.8159 90.6491 67.9219V67.9219C92.0921 68.19 91.5221 70.1629 90.0783 70.4272C86.7095 71.0438 83.6273 72.7039 80.9444 75.144C78.0776 77.7509 75.7086 81.2641 74.0969 85.2879C73.4185 86.9814 71.0202 87.0305 71.1044 85.2081V85.2081C71.1599 84.0036 71.426 82.7478 72.0008 81.369C73.7063 77.9478 75.9451 74.9228 78.6059 72.5027C80.0732 71.1685 81.6797 70.0208 83.3938 69.1026C85.4439 68.1129 87.2424 67.7316 88.8852 67.7496C88.8852 67.7496 88.8852 67.7497 88.8852 67.7497V67.7497ZM111.941 79.5823C111.941 79.5826 111.941 79.583 111.941 79.5832C116.176 82.0837 118.385 87.5321 118.118 93.0002C118.012 95.164 117.468 97.363 116.448 99.3852C114.112 102.974 109.801 104.225 107.092 103.354C107.082 103.351 107.074 103.344 107.071 103.334V103.334C107.064 103.316 107.074 103.296 107.091 103.29C112.308 101.317 114.407 97.1447 114.619 92.8215C114.629 92.6236 114.634 92.4259 114.635 92.2286C114.638 91.6791 114.65 91.1293 114.679 90.5805C114.804 88.2499 114.435 85.6388 113.588 83.1548C113.169 81.9279 112.628 80.7202 111.94 79.618C111.934 79.607 111.934 79.593 111.941 79.5823V79.5823V79.5823ZM82.0343 81.3867C83.239 80.6323 84.149 82.2141 83.2882 83.3452C81.6172 85.5409 80.76 87.5489 80.2818 89.5642C79.5601 92.6069 79.7589 95.8004 79.737 99.6049C79.7107 104.123 79.2569 109.393 76.2791 115.877V115.877C76.2771 115.882 76.2718 115.885 76.2685 115.889C72.3146 120.966 67.7829 125.803 63.3541 128.675C63.352 128.676 63.3495 128.676 63.3473 128.675V128.675C63.3431 128.673 63.3421 128.668 63.3452 128.664C75.3783 115.082 76.1904 106.871 76.2323 99.581C76.2533 95.9356 75.9973 92.442 76.877 88.7334C76.985 88.2787 77.1098 87.8284 77.2512 87.3832C77.2517 87.3815 77.2533 87.3804 77.2551 87.3804V87.3804C77.2567 87.3804 77.2582 87.3794 77.2588 87.378C78.7772 84.1444 80.366 82.4318 82.0343 81.3867V81.3867Z" fill="white"/>
<rect x="5.37537" y="5.44727" width="143.089" height="202.997" rx="10" fill="#2E2E2E"/>
<path d="M92.9465 61.8997C92.9464 61.8995 92.9462 61.8994 92.9459 61.8994C88.3495 61.9171 83.7581 62.8936 79.6194 64.8667C75.4073 66.8753 71.5343 71.3616 68.6718 76.7472C65.8093 82.1327 63.9493 88.3807 63.4789 93.6005C62.0868 109.06 53.8824 122.864 34.0289 141.089C33.7042 141.388 33.5118 141.811 33.508 142.252V142.252C33.4964 143.595 35.0529 144.338 36.0772 143.469C47.9818 133.368 56.6887 123.302 63.0597 113.266C63.0618 113.263 63.0659 113.262 63.0694 113.264V113.264C63.0727 113.265 63.0744 113.269 63.0734 113.273C61.3307 119.437 58.8311 125.266 54.8996 129.972C49.0899 136.623 42.1385 143.263 33.8288 149.886C33.5788 150.085 33.431 150.387 33.4287 150.707V150.707C33.4243 151.292 33.8967 151.769 34.4819 151.771L38.1092 151.78V151.78C38.1659 151.78 38.2206 151.759 38.2624 151.721L38.4374 151.561C43.0082 148.432 47.5409 145.589 52.0334 143.688C52.0444 143.683 52.0571 143.685 52.0655 143.694V143.694C52.0771 143.706 52.0767 143.725 52.0646 143.736L46.8453 148.573C45.6065 149.721 46.4163 151.793 48.1053 151.796V151.796C48.5563 151.797 48.9923 151.635 49.3309 151.337C58.2119 143.523 66.6941 134.427 73.1148 125.782C78.8789 118.022 82.8913 110.58 84.2019 105.075C84.4291 104.121 84.2072 103.144 83.8105 102.247V102.247C80.2786 94.2597 83.0092 83.9361 91.353 80.2068C97.4911 77.4628 105.391 79.6057 108.314 86.1589C108.342 86.2221 108.374 86.2793 108.402 86.3431C110.896 90.9124 109.56 95.7391 106.649 98.111C105.174 99.3126 103.191 99.9203 101.257 99.3567C99.7529 98.9184 98.4275 97.8087 97.4312 96.1433C96.9371 95.3172 97.3796 94.2891 98.269 93.921V93.921C99.1694 93.5484 100.161 94.0145 100.738 94.7997C101.254 95.501 101.776 95.8142 102.224 95.945C102.92 96.1474 103.681 95.9731 104.451 95.3453C105.992 94.0901 107.13 91.1847 105.278 87.9336L105.225 87.8444L105.184 87.7494C103.177 83.0362 97.3146 81.4196 92.7649 83.453C86.3768 86.3085 84.2143 94.4769 87.0101 100.799C90.8597 109.505 101.633 112.416 109.96 108.561C121.242 103.339 124.988 88.9395 119.917 77.8334C115.278 67.6734 104.65 62.17 93.8667 61.9119C93.5606 61.9044 93.2533 61.8987 92.947 61.9C92.9468 61.9 92.9466 61.8999 92.9465 61.8997V61.8997ZM88.1173 66.9734C88.1172 66.9734 88.1173 66.9734 88.1173 66.9734C88.7245 66.9801 89.3105 67.0395 89.8812 67.1455V67.1455C91.3242 67.4136 90.7541 69.3865 89.3104 69.6508C85.9416 70.2674 82.8594 71.9275 80.1764 74.3676C77.3096 76.9745 74.9406 80.4878 73.3289 84.5115C72.6506 86.205 70.2522 86.2541 70.3364 84.4318V84.4318C70.392 83.2273 70.6581 81.9715 71.2329 80.5926C72.9384 77.1715 75.1772 74.1464 77.838 71.7264C79.3053 70.3922 80.9117 69.2444 82.6259 68.3263C84.676 67.3366 86.4744 66.9552 88.1172 66.9733C88.1173 66.9733 88.1173 66.9733 88.1173 66.9734V66.9734ZM111.173 78.8059C111.173 78.8062 111.173 78.8066 111.173 78.8068C115.408 81.3073 117.618 86.7558 117.35 92.2238C117.244 94.3877 116.7 96.5867 115.68 98.6089C113.344 102.198 109.033 103.448 106.324 102.578C106.314 102.575 106.306 102.567 106.303 102.557V102.557C106.296 102.54 106.306 102.52 106.323 102.513C111.54 100.54 113.639 96.3684 113.851 92.0451C113.861 91.8472 113.866 91.6495 113.867 91.4523C113.87 90.9027 113.882 90.3529 113.911 89.8041C114.036 87.4736 113.667 84.8624 112.82 82.3784C112.401 81.1516 111.86 79.9439 111.172 78.8417C111.166 78.8306 111.166 78.8166 111.173 78.8059V78.8059V78.8059ZM81.2664 80.6103C82.4711 79.8559 83.381 81.4377 82.5202 82.5688C80.8493 84.7645 79.9921 86.7725 79.5138 88.7878C78.7922 91.8305 78.991 95.024 78.969 98.8286C78.9428 103.346 78.4889 108.616 75.5112 115.1V115.1C75.5092 115.105 75.5039 115.108 75.5006 115.113C71.5466 120.189 67.0149 125.027 62.5861 127.898C62.5841 127.9 62.5815 127.9 62.5793 127.899V127.899C62.5752 127.897 62.5742 127.891 62.5773 127.888C74.6104 114.306 75.4225 106.095 75.4643 98.8046C75.4853 95.1592 75.2293 91.6657 76.1091 87.957C76.217 87.5024 76.3418 87.052 76.4832 86.6069C76.4838 86.6052 76.4854 86.604 76.4872 86.604V86.604C76.4888 86.604 76.4902 86.603 76.4909 86.6016C78.0092 83.3681 79.5981 81.6554 81.2664 80.6103V80.6103Z" fill="white"/>
<rect x="4.60748" y="4.66895" width="143.089" height="202.997" rx="10" fill="#2E2E2E"/>
<path d="M92.1786 61.1214C92.1785 61.1212 92.1783 61.1211 92.1781 61.1211C87.5816 61.1388 82.9902 62.1152 78.8515 64.0884C74.6394 66.0969 70.7664 70.5833 67.904 75.9689C65.0414 81.3544 63.1814 87.6023 62.711 92.8222C61.3189 108.282 53.1145 122.086 33.261 140.311C32.9363 140.609 32.7439 141.033 32.7401 141.474V141.474C32.7285 142.817 34.285 143.559 35.3093 142.69C47.2139 132.59 55.9208 122.524 62.2918 112.488C62.2939 112.485 62.2981 112.484 62.3015 112.485V112.485C62.3048 112.487 62.3065 112.491 62.3055 112.494C60.5628 118.658 58.0633 124.487 54.1317 129.193C48.322 135.845 41.3707 142.484 33.0609 149.108C32.8109 149.307 32.6631 149.609 32.6608 149.928V149.928C32.6564 150.514 33.1288 150.991 33.714 150.992L37.3414 151.002V151.002C37.3981 151.002 37.4527 150.981 37.4945 150.942L37.6696 150.782C42.2403 147.654 46.773 144.81 51.2656 142.909C51.2766 142.905 51.2892 142.907 51.2976 142.916V142.916C51.3092 142.927 51.3088 142.946 51.2967 142.957L46.0775 147.794C44.8386 148.943 45.6484 151.014 47.3374 151.018V151.018C47.7884 151.019 48.2244 150.857 48.563 150.559C57.4441 142.745 65.9262 133.648 72.3469 125.004C78.111 117.243 82.1234 109.802 83.434 104.296C83.6612 103.342 83.4393 102.366 83.0426 101.468V101.468C79.5107 93.4813 82.2413 83.1578 90.5851 79.4284C96.7232 76.6844 104.623 78.8274 107.546 85.3806C107.574 85.4438 107.606 85.5009 107.634 85.5648C110.128 90.134 108.792 94.9608 105.881 97.3326C104.406 98.5343 102.423 99.142 100.49 98.5784C98.985 98.1401 97.6596 97.0304 96.6633 95.3649C96.1692 94.5389 96.6118 93.5107 97.5011 93.1427V93.1427C98.4015 92.7701 99.3931 93.2362 99.9702 94.0213C100.486 94.7227 101.009 95.0358 101.456 95.1667C102.152 95.3691 102.913 95.1948 103.683 94.567C105.224 93.3118 106.362 90.4064 104.51 87.1553L104.457 87.0661L104.416 86.9711C102.409 82.2579 96.5467 80.6413 91.9971 82.6747C85.6089 85.5302 83.4464 93.6986 86.2422 100.021C90.0918 108.727 100.865 111.638 109.192 107.783C120.474 102.561 124.22 88.1612 119.149 77.0551C114.51 66.8951 103.882 61.3917 93.0988 61.1336C92.7927 61.126 92.4854 61.1203 92.1791 61.1217C92.1789 61.1217 92.1787 61.1216 92.1786 61.1214V61.1214ZM87.3494 66.195C87.3493 66.1951 87.3494 66.1951 87.3494 66.1951C87.9566 66.2018 88.5426 66.2612 89.1133 66.3672V66.3672C90.5563 66.6353 89.9862 68.6082 88.5425 68.8725C85.1737 69.4891 82.0915 71.1492 79.4085 73.5893C76.5417 76.1962 74.1727 79.7095 72.561 83.7332C71.8827 85.4267 69.4843 85.4758 69.5686 83.6534V83.6534C69.6241 82.4489 69.8902 81.1931 70.465 79.8143C72.1705 76.3931 74.4093 73.3681 77.0701 70.948C78.5374 69.6138 80.1439 68.4661 81.858 67.5479C83.9081 66.5582 85.7065 66.1769 87.3493 66.1949C87.3494 66.1949 87.3494 66.195 87.3494 66.195V66.195ZM110.405 78.0276C110.405 78.0279 110.405 78.0283 110.405 78.0285C114.64 80.529 116.85 85.9775 116.582 91.4455C116.476 93.6093 115.932 95.8083 114.912 97.8305C112.576 101.42 108.265 102.67 105.556 101.8C105.546 101.796 105.538 101.789 105.535 101.779V101.779C105.528 101.761 105.538 101.742 105.555 101.735C110.772 99.7618 112.871 95.59 113.083 91.2668C113.093 91.0689 113.098 90.8712 113.099 90.6739C113.102 90.1244 113.114 89.5746 113.143 89.0258C113.268 86.6952 112.899 84.0841 112.052 81.6001C111.633 80.3732 111.092 79.1656 110.405 78.0633C110.398 78.0523 110.398 78.0383 110.405 78.0276V78.0276V78.0276ZM80.4985 79.832C81.7032 79.0776 82.6131 80.6594 81.7524 81.7905C80.0814 83.9862 79.2242 85.9942 78.746 88.0095C78.0243 91.0522 78.2231 94.2457 78.2012 98.0503C78.1749 102.568 77.7211 107.838 74.7433 114.322V114.322C74.7413 114.327 74.736 114.33 74.7327 114.334C70.7787 119.411 66.2471 124.249 61.8182 127.12C61.8162 127.121 61.8136 127.122 61.8114 127.121V127.121C61.8073 127.119 61.8063 127.113 61.8094 127.11C73.8425 113.528 74.6546 105.317 74.6964 98.0263C74.7174 94.3809 74.4614 90.8874 75.3412 87.1787C75.4491 86.724 75.5739 86.2737 75.7154 85.8285C75.7159 85.8268 75.7175 85.8257 75.7193 85.8257V85.8257C75.7209 85.8257 75.7223 85.8247 75.723 85.8233C77.2414 82.5897 78.8302 80.8771 80.4985 79.832V79.832Z" fill="white"/>
<rect x="3.83954" y="3.89062" width="143.089" height="202.997" rx="10" fill="#2E2E2E"/>
<path d="M91.4106 60.344C91.4105 60.3439 91.4103 60.3438 91.4101 60.3438C86.8137 60.3615 82.2223 61.3379 78.0836 63.3111C73.8715 65.3196 69.9984 69.8059 67.136 75.1916C64.2734 80.577 62.4134 86.825 61.9431 92.0449C60.551 107.505 52.3466 121.308 32.4931 139.534C32.1684 139.832 31.976 140.256 31.9722 140.696V140.696C31.9605 142.04 33.5171 142.782 34.5414 141.913C46.446 131.812 55.1529 121.747 61.5239 111.711C61.526 111.707 61.5301 111.706 61.5336 111.708V111.708C61.5369 111.71 61.5386 111.713 61.5376 111.717C59.7949 117.881 57.2953 123.71 53.3637 128.416C47.554 135.068 40.6027 141.707 32.2929 148.33C32.043 148.53 31.8952 148.831 31.8928 149.151V149.151C31.8885 149.736 32.3609 150.213 32.9461 150.215L36.5734 150.224V150.224C36.6301 150.224 36.6848 150.203 36.7266 150.165L36.9016 150.005C41.4723 146.876 46.0051 144.033 50.4976 142.132C50.5086 142.127 50.5213 142.13 50.5297 142.138V142.138C50.5413 142.15 50.5408 142.169 50.5288 142.18L45.3095 147.017C44.0707 148.165 44.8804 150.237 46.5695 150.241V150.241C47.0205 150.242 47.4564 150.079 47.795 149.781C56.6761 141.967 65.1583 132.871 71.579 124.226C77.3431 116.466 81.3555 109.024 82.6661 103.519C82.8933 102.565 82.6714 101.588 82.2747 100.691V100.691C78.7428 92.704 81.4734 82.3805 89.8171 78.6511C95.9553 75.9071 103.855 78.0501 106.778 84.6032C106.806 84.6664 106.839 84.7236 106.866 84.7874C109.361 89.3567 108.024 94.1835 105.113 96.5553C103.638 97.757 101.655 98.3646 99.7216 97.801C98.2171 97.3628 96.8916 96.253 95.8954 94.5876C95.4013 93.7616 95.8438 92.7334 96.7332 92.3653V92.3653C97.6336 91.9928 98.6251 92.4589 99.2022 93.244C99.7177 93.9454 100.241 94.2585 100.688 94.3893C101.384 94.5918 102.145 94.4174 102.915 93.7896C104.456 92.5344 105.594 89.629 103.742 86.378L103.689 86.2887L103.648 86.1938C101.641 81.4806 95.7788 79.864 91.2291 81.8974C84.841 84.7528 82.6785 92.9212 85.4743 99.2435C89.3239 107.949 100.097 110.861 108.424 107.005C119.706 101.783 123.452 87.3839 118.382 76.2778C113.742 66.1177 103.114 60.6144 92.3309 60.3563C92.0248 60.3487 91.7175 60.343 91.4112 60.3443C91.411 60.3443 91.4108 60.3442 91.4106 60.344V60.344ZM86.5814 65.4177C86.5814 65.4177 86.5814 65.4178 86.5815 65.4178C87.1887 65.4244 87.7747 65.4839 88.3453 65.5898V65.5898C89.7884 65.858 89.2183 67.8309 87.7745 68.0951C84.4058 68.7117 81.3236 70.3718 78.6406 72.812C75.7738 75.4188 73.4048 78.9321 71.7931 82.9559C71.1148 84.6493 68.7164 84.6985 68.8006 82.8761V82.8761C68.8561 81.6716 69.1222 80.4158 69.6971 79.037C71.4025 75.6158 73.6414 72.5907 76.3022 70.1707C77.7695 68.8365 79.3759 67.6888 81.09 66.7706C83.1401 65.7809 84.9386 65.3996 86.5814 65.4176C86.5814 65.4176 86.5815 65.4177 86.5814 65.4177V65.4177ZM109.637 77.2502C109.637 77.2505 109.637 77.251 109.638 77.2512C113.872 79.7517 116.082 85.2001 115.814 90.6681C115.708 92.832 115.164 95.031 114.144 97.0532C111.808 100.642 107.497 101.893 104.788 101.022C104.778 101.019 104.77 101.012 104.767 101.002V101.002C104.76 100.984 104.77 100.964 104.787 100.958C110.004 98.9845 112.104 94.8127 112.315 90.4894C112.325 90.2916 112.33 90.0939 112.331 89.8966C112.334 89.347 112.346 88.7973 112.376 88.2485C112.5 85.9179 112.131 83.3068 111.284 80.8228C110.865 79.5959 110.324 78.3882 109.637 77.286C109.63 77.275 109.63 77.261 109.637 77.2502V77.2502V77.2502ZM79.7306 79.0546C80.9353 78.3003 81.8452 79.882 80.9844 81.0131C79.3134 83.2089 78.4562 85.2168 77.978 87.2321C77.2564 90.2748 77.4552 93.4683 77.4332 97.2729C77.407 101.791 76.9531 107.061 73.9754 113.545V113.545C73.9733 113.55 73.9681 113.553 73.9648 113.557C70.0108 118.634 65.4791 123.471 61.0503 126.343C61.0482 126.344 61.0457 126.344 61.0435 126.343V126.343C61.0393 126.341 61.0384 126.336 61.0414 126.332C73.0745 112.75 73.8867 104.539 73.9285 97.249C73.9495 93.6035 73.6935 90.11 74.5732 86.4013C74.6812 85.9467 74.806 85.4963 74.9474 85.0512C74.948 85.0495 74.9495 85.0483 74.9513 85.0483V85.0483C74.9529 85.0483 74.9544 85.0474 74.9551 85.0459C76.4734 81.8124 78.0623 80.0997 79.7306 79.0546V79.0546Z" fill="white"/>
<rect x="3.07166" y="3.11328" width="143.089" height="202.997" rx="10" fill="#2E2E2E"/>
<path d="M90.6428 59.5657C90.6426 59.5655 90.6425 59.5654 90.6422 59.5654C86.0458 59.5831 81.4544 60.5596 77.3157 62.5328C73.1036 64.5413 69.2305 69.0276 66.3681 74.4132C63.5055 79.7987 61.6455 86.0467 61.1752 91.2665C59.7831 106.726 51.5787 120.53 31.7252 138.756C31.4005 139.054 31.2081 139.477 31.2043 139.918V139.918C31.1927 141.261 32.7492 142.004 33.7735 141.135C45.6781 131.034 54.385 120.968 60.756 110.932C60.7581 110.929 60.7622 110.928 60.7657 110.93V110.93C60.769 110.931 60.7707 110.935 60.7697 110.939C59.027 117.103 56.5274 122.932 52.5959 127.638C46.7862 134.289 39.8348 140.929 31.5251 147.552C31.2751 147.751 31.1273 148.053 31.1249 148.373V148.373C31.1206 148.958 31.593 149.435 32.1782 149.437L35.8055 149.446V149.446C35.8622 149.446 35.9169 149.425 35.9587 149.387L36.1337 149.227C40.7044 146.098 45.2372 143.255 49.7297 141.354C49.7407 141.349 49.7534 141.351 49.7618 141.36V141.36C49.7734 141.372 49.773 141.391 49.7609 141.402L44.5416 146.239C43.3028 147.387 44.1125 149.459 45.8016 149.462V149.462C46.2526 149.463 46.6886 149.301 47.0271 149.003C55.9082 141.189 64.3904 132.093 70.8111 123.448C76.5752 115.688 80.5876 108.246 81.8982 102.741C82.1254 101.787 81.9035 100.81 81.5068 99.9127V99.9127C77.9749 91.9257 80.7055 81.6022 89.0493 77.8728C95.1874 75.1288 103.087 77.2718 106.01 83.8249C106.038 83.8881 106.071 83.9453 106.098 84.0091C108.593 88.5784 107.256 93.4052 104.345 95.777C102.87 96.9786 100.887 97.5863 98.9537 97.0227C97.4492 96.5844 96.1238 95.4747 95.1275 93.8093C94.6334 92.9833 95.0759 91.9551 95.9653 91.587V91.587C96.8657 91.2144 97.8573 91.6805 98.4343 92.4657C98.9498 93.167 99.4727 93.4802 99.9205 93.611C100.616 93.8134 101.377 93.6391 102.148 93.0113C103.688 91.7561 104.826 88.8507 102.974 85.5997L102.921 85.5104L102.88 85.4155C100.873 80.7022 95.0109 79.0856 90.4612 81.1191C84.0731 83.9745 81.9106 92.1429 84.7064 98.4651C88.556 107.171 99.3288 110.082 107.656 106.227C118.938 101.005 122.684 86.6055 117.614 75.4994C112.974 65.3394 102.346 59.836 91.563 59.578C91.2569 59.5704 90.9496 59.5647 90.6433 59.566C90.6431 59.566 90.6429 59.5659 90.6428 59.5657V59.5657ZM85.8136 64.6394C85.8135 64.6394 85.8135 64.6395 85.8136 64.6395C86.4208 64.6461 87.0068 64.7056 87.5774 64.8115V64.8115C89.0205 65.0796 88.4504 67.0526 87.0067 67.3168C83.6379 67.9334 80.5557 69.5935 77.8727 72.0337C75.0059 74.6405 72.6369 78.1538 71.0252 82.1775C70.3469 83.871 67.9485 83.9201 68.0327 82.0978V82.0978C68.0882 80.8933 68.3544 79.6375 68.9292 78.2586C70.6346 74.8375 72.8735 71.8124 75.5343 69.3924C77.0016 68.0582 78.608 66.9104 80.3221 65.9923C82.3723 65.0026 84.1707 64.6213 85.8135 64.6393C85.8136 64.6393 85.8136 64.6393 85.8136 64.6394V64.6394ZM108.869 76.4719C108.869 76.4722 108.869 76.4726 108.87 76.4728C113.104 78.9734 115.314 84.4218 115.046 89.8898C114.94 92.0537 114.396 94.2527 113.376 96.2749C111.04 99.864 106.729 101.114 104.02 100.244C104.01 100.241 104.003 100.233 103.999 100.223V100.223C103.993 100.206 104.002 100.186 104.019 100.179C109.236 98.2062 111.336 94.0344 111.548 89.7111C111.557 89.5132 111.563 89.3156 111.564 89.1183C111.566 88.5687 111.578 88.0189 111.608 87.4702C111.732 85.1396 111.363 82.5284 110.516 80.0444C110.098 78.8176 109.556 77.6099 108.869 76.5077C108.862 76.4967 108.862 76.4826 108.869 76.4719V76.4719V76.4719ZM78.9627 78.2763C80.1674 77.522 81.0773 79.1037 80.2165 80.2348C78.5456 82.4306 77.6884 84.4385 77.2101 86.4538C76.4885 89.4965 76.6873 92.69 76.6653 96.4946C76.6391 101.012 76.1852 106.282 73.2075 112.766V112.766C73.2054 112.771 73.2002 112.774 73.1969 112.779C69.2429 117.855 64.7112 122.693 60.2824 125.564C60.2804 125.566 60.2778 125.566 60.2756 125.565V125.565C60.2715 125.563 60.2705 125.557 60.2735 125.554C72.3066 111.972 73.1188 103.761 73.1606 96.4707C73.1816 92.8252 72.9256 89.3317 73.8054 85.623C73.9133 85.1684 74.0381 84.718 74.1795 84.2729C74.1801 84.2712 74.1817 84.27 74.1835 84.27V84.27C74.185 84.27 74.1865 84.2691 74.1872 84.2676C75.7055 81.0341 77.2944 79.3214 78.9627 78.2763V78.2763Z" fill="white"/>
<rect x="2.30371" y="2.33496" width="143.089" height="202.997" rx="10" fill="#2E2E2E"/>
<path d="M89.8749 58.7874C89.8748 58.7872 89.8746 58.7871 89.8744 58.7871C85.2779 58.8048 80.6865 59.7813 76.5478 61.7544C72.3357 63.763 68.4627 68.2493 65.6003 73.6349C62.7377 79.0204 60.8777 85.2684 60.4073 90.4882C59.0152 105.948 50.8108 119.752 30.9573 137.977C30.6326 138.275 30.4402 138.699 30.4364 139.14V139.14C30.4248 140.483 31.9813 141.225 33.0056 140.356C44.9102 130.256 53.6171 120.19 59.9881 110.154C59.9902 110.151 59.9943 110.15 59.9978 110.151V110.151C60.0011 110.153 60.0028 110.157 60.0018 110.16C58.2591 116.324 55.7596 122.153 51.828 126.859C46.0183 133.511 39.0669 140.15 30.7572 146.774C30.5072 146.973 30.3594 147.275 30.3571 147.594V147.594C30.3527 148.18 30.8251 148.657 31.4103 148.658L35.0376 148.668V148.668C35.0943 148.668 35.149 148.647 35.1908 148.608L35.3658 148.448C39.9366 145.32 44.4693 142.476 48.9618 140.575C48.9728 140.571 48.9855 140.573 48.9939 140.582V140.582C49.0055 140.593 49.0051 140.612 48.993 140.624L43.7738 145.46C42.5349 146.609 43.3447 148.68 45.0337 148.684V148.684C45.4847 148.685 45.9207 148.523 46.2593 148.225C55.1403 140.411 63.6225 131.314 70.0432 122.67C75.8073 114.909 79.8197 107.468 81.1303 101.962C81.3575 101.008 81.1356 100.032 80.7389 99.1344V99.1344C77.207 91.1474 79.9376 80.8238 88.2814 77.0945C94.4195 74.3505 102.319 76.4934 105.242 83.0466C105.27 83.1098 105.303 83.167 105.33 83.2308C107.825 87.8001 106.488 92.6268 103.578 94.9986C102.102 96.2003 100.119 96.808 98.1858 96.2444C96.6813 95.8061 95.3559 94.6964 94.3596 93.031C93.8655 92.2049 94.308 91.1767 95.1974 90.8087V90.8087C96.0978 90.4361 97.0894 90.9022 97.6664 91.6874C98.1819 92.3887 98.7049 92.7019 99.1526 92.8327C99.848 93.0351 100.609 92.8608 101.38 92.233C102.92 90.9778 104.058 88.0724 102.206 84.8213L102.153 84.7321L102.112 84.6371C100.105 79.9239 94.243 78.3073 89.6933 80.3407C83.3052 83.1962 81.1427 91.3646 83.9385 97.6868C87.7881 106.393 98.5609 109.304 106.889 105.449C118.17 100.227 121.916 85.8272 116.846 74.7211C112.207 64.5611 101.578 59.0577 90.7951 58.7996C90.489 58.792 90.1817 58.7864 89.8754 58.7877C89.8752 58.7877 89.875 58.7876 89.8749 58.7874V58.7874ZM85.0457 63.861C85.0456 63.8611 85.0457 63.8611 85.0457 63.8611C85.6529 63.8678 86.2389 63.9272 86.8096 64.0332V64.0332C88.2526 64.3013 87.6825 66.2742 86.2388 66.5385C82.87 67.1551 79.7878 68.8152 77.1048 71.2553C74.238 73.8622 71.869 77.3755 70.2573 81.3992C69.579 83.0927 67.1806 83.1418 67.2649 81.3195V81.3195C67.3204 80.1149 67.5865 78.8592 68.1613 77.4803C69.8668 74.0592 72.1056 71.0341 74.7664 68.6141C76.2337 67.2798 77.8402 66.1321 79.5543 65.214C81.6044 64.2243 83.4028 63.8429 85.0456 63.861C85.0457 63.861 85.0457 63.861 85.0457 63.861V63.861ZM108.102 75.6936C108.101 75.6939 108.101 75.6943 108.102 75.6945C112.337 78.195 114.546 83.6435 114.278 89.1115C114.172 91.2754 113.628 93.4744 112.608 95.4966C110.272 99.0857 105.962 100.336 103.253 99.4657C103.243 99.4625 103.235 99.4549 103.231 99.445V99.445C103.225 99.4274 103.234 99.4077 103.252 99.4011C108.469 97.4279 110.568 93.2561 110.78 88.9328C110.789 88.7349 110.795 88.5372 110.796 88.34C110.798 87.7904 110.81 87.2406 110.84 86.6918C110.964 84.3612 110.595 81.7501 109.748 79.2661C109.33 78.0393 108.788 76.8316 108.101 75.7294C108.094 75.7183 108.094 75.7043 108.102 75.6936V75.6936V75.6936ZM78.1948 77.498C79.3995 76.7436 80.3094 78.3254 79.4486 79.4565C77.7777 81.6522 76.9205 83.6602 76.4422 85.6755C75.7206 88.7182 75.9194 91.9117 75.8974 95.7163C75.8712 100.234 75.4173 105.504 72.4396 111.988V111.988C72.4376 111.993 72.4323 111.996 72.429 112C68.475 117.077 63.9433 121.915 59.5145 124.786C59.5125 124.787 59.5099 124.788 59.5077 124.787V124.787C59.5036 124.785 59.5026 124.779 59.5057 124.776C71.5388 111.194 72.3509 102.983 72.3927 95.6923C72.4137 92.0469 72.1577 88.5534 73.0375 84.8447C73.1454 84.3901 73.2702 83.9397 73.4116 83.4946C73.4122 83.4928 73.4138 83.4917 73.4156 83.4917V83.4917C73.4172 83.4917 73.4186 83.4907 73.4193 83.4893C74.9377 80.2558 76.5265 78.5431 78.1948 77.498V77.498Z" fill="white"/>
<rect x="1.53583" y="1.55566" width="143.089" height="202.997" rx="10" fill="#2E2E2E"/>
<path d="M89.107 58.0081C89.1069 58.0079 89.1067 58.0078 89.1065 58.0078C84.51 58.0255 79.9186 59.002 75.7799 60.9751C71.5678 62.9837 67.6948 67.47 64.8324 72.8556C61.9698 78.2411 60.1098 84.4891 59.6394 89.7089C58.2473 105.169 50.0429 118.972 30.1894 137.198C29.8647 137.496 29.6723 137.92 29.6685 138.36V138.36C29.6569 139.704 31.2134 140.446 32.2377 139.577C44.1424 129.476 52.8492 119.411 59.2202 109.375C59.2223 109.372 59.2265 109.37 59.2299 109.372V109.372C59.2332 109.374 59.2349 109.377 59.2339 109.381C57.4912 115.545 54.9917 121.374 51.0601 126.08C45.2504 132.732 38.2991 139.371 29.9893 145.995C29.7393 146.194 29.5915 146.496 29.5892 146.815V146.815C29.5848 147.4 30.0572 147.878 30.6424 147.879L34.2698 147.888V147.888C34.3265 147.888 34.3811 147.867 34.423 147.829L34.598 147.669C39.1687 144.54 43.7014 141.697 48.194 139.796C48.205 139.791 48.2176 139.794 48.226 139.802V139.802C48.2376 139.814 48.2372 139.833 48.2251 139.844L43.0059 144.681C41.767 145.829 42.5768 147.901 44.2658 147.905V147.905C44.7168 147.906 45.1528 147.743 45.4914 147.445C54.3725 139.631 62.8546 130.535 69.2754 121.89C75.0394 114.13 79.0518 106.688 80.3624 101.183C80.5896 100.229 80.3677 99.2523 79.9711 98.3551V98.3551C76.4391 90.3681 79.1697 80.0445 87.5135 76.3152C93.6516 73.5712 101.552 75.7141 104.474 82.2673C104.502 82.3305 104.535 82.3877 104.562 82.4515C107.057 87.0208 105.72 91.8475 102.81 94.2194C101.335 95.421 99.3511 96.0287 97.418 95.4651C95.9134 95.0268 94.588 93.9171 93.5917 92.2517C93.0976 91.4256 93.5402 90.3974 94.4296 90.0294V90.0294C95.3299 89.6568 96.3215 90.1229 96.8986 90.9081C97.4141 91.6094 97.937 91.9226 98.3847 92.0534C99.0801 92.2558 99.8413 92.0815 100.612 91.4537C102.153 90.1985 103.29 87.2931 101.438 84.042L101.386 83.9528L101.344 83.8578C99.3376 79.1446 93.4751 77.528 88.9255 79.5614C82.5373 82.4169 80.3748 90.5853 83.1706 96.9075C87.0203 105.614 97.793 108.525 106.121 104.67C117.402 99.4474 121.148 85.0479 116.078 73.9418C111.439 63.7818 100.81 58.2784 90.0273 58.0203C89.7211 58.0128 89.4139 58.0071 89.1075 58.0084C89.1073 58.0084 89.1071 58.0083 89.107 58.0081V58.0081ZM84.2778 63.0818C84.2778 63.0818 84.2778 63.0818 84.2778 63.0818C84.885 63.0885 85.471 63.1479 86.0417 63.2539V63.2539C87.4847 63.522 86.9147 65.4949 85.4709 65.7592C82.1021 66.3758 79.0199 68.0359 76.3369 70.476C73.4701 73.0829 71.1011 76.5962 69.4894 80.6199C68.8111 82.3134 66.4128 82.3625 66.497 80.5402V80.5402C66.5525 79.3357 66.8186 78.0799 67.3934 76.701C69.0989 73.2799 71.3377 70.2548 73.9985 67.8348C75.4658 66.5006 77.0723 65.3528 78.7864 64.4347C80.8365 63.445 82.6349 63.0636 84.2777 63.0817C84.2778 63.0817 84.2778 63.0817 84.2778 63.0818V63.0818ZM107.334 74.9143C107.333 74.9146 107.334 74.915 107.334 74.9152C111.569 77.4157 113.778 82.8642 113.51 88.3322C113.405 90.4961 112.86 92.6951 111.84 94.7173C109.504 98.3064 105.194 99.5567 102.485 98.6864C102.475 98.6832 102.467 98.6756 102.463 98.6657V98.6657C102.457 98.6481 102.466 98.6284 102.484 98.6218C107.701 96.6486 109.8 92.4768 110.012 88.1535C110.021 87.9556 110.027 87.7579 110.028 87.5607C110.031 87.0111 110.043 86.4613 110.072 85.9125C110.196 83.582 109.828 80.9708 108.98 78.4868C108.562 77.26 108.02 76.0523 107.333 74.9501C107.326 74.939 107.326 74.925 107.334 74.9143V74.9143V74.9143ZM77.4269 76.7187C78.6316 75.9643 79.5416 77.5461 78.6808 78.6772C77.0098 80.8729 76.1526 82.8809 75.6744 84.8962C74.9527 87.9389 75.1515 91.1324 75.1296 94.937C75.1033 99.4546 74.6495 104.725 71.6717 111.209V111.209C71.6697 111.214 71.6644 111.217 71.6611 111.221C67.7071 116.298 63.1755 121.135 58.7466 124.007C58.7446 124.008 58.742 124.008 58.7398 124.007V124.007C58.7357 124.005 58.7347 124 58.7378 123.996C70.7709 110.414 71.583 102.203 71.6248 94.913C71.6458 91.2676 71.3899 87.7741 72.2696 84.0654C72.3775 83.6108 72.5023 83.1604 72.6438 82.7153C72.6443 82.7135 72.6459 82.7124 72.6477 82.7124V82.7124C72.6493 82.7124 72.6507 82.7114 72.6514 82.71C74.1698 79.4765 75.7586 77.7638 77.4269 76.7187V76.7187Z" fill="white"/>
<rect x="0.767883" y="0.77832" width="143.089" height="202.997" rx="10" fill="#2E2E2E"/>
<path d="M88.339 57.2308C88.3389 57.2306 88.3387 57.2305 88.3385 57.2305C83.742 57.2482 79.1506 58.2246 75.0119 60.1978C70.7998 62.2063 66.9268 66.6926 64.0644 72.0783C61.2018 77.4637 59.3418 83.7117 58.8714 88.9316C57.4793 104.391 49.2749 118.195 29.4214 136.421C29.0967 136.719 28.9043 137.142 28.9005 137.583V137.583C28.8889 138.926 30.4454 139.669 31.4697 138.8C43.3743 128.699 52.0812 118.633 58.4522 108.597C58.4543 108.594 58.4585 108.593 58.4619 108.595V108.595C58.4652 108.596 58.4669 108.6 58.4659 108.604C56.7232 114.768 54.2237 120.597 50.2921 125.303C44.4824 131.954 37.5311 138.594 29.2213 145.217C28.9713 145.416 28.8235 145.718 28.8212 146.038V146.038C28.8168 146.623 29.2892 147.1 29.8744 147.102L33.5018 147.111V147.111C33.5585 147.111 33.6131 147.09 33.6549 147.052L33.83 146.892C38.4007 143.763 42.9334 140.92 47.426 139.019C47.437 139.014 47.4496 139.016 47.458 139.025V139.025C47.4696 139.037 47.4692 139.056 47.4571 139.067L42.2379 143.904C40.999 145.052 41.8088 147.124 43.4978 147.127V147.127C43.9488 147.128 44.3848 146.966 44.7234 146.668C53.6045 138.854 62.0866 129.758 68.5073 121.113C74.2714 113.353 78.2838 105.911 79.5944 100.406C79.8216 99.4516 79.5997 98.4749 79.203 97.5778V97.5778C75.6711 89.5907 78.4017 79.2672 86.7455 75.5378C92.8836 72.7938 100.783 74.9368 103.706 81.4899C103.734 81.5532 103.767 81.6103 103.794 81.6741C106.289 86.2434 104.952 91.0702 102.042 93.442C100.567 94.6437 98.5831 95.2513 96.65 94.6877C95.1454 94.2495 93.82 93.1397 92.8237 91.4743C92.3296 90.6483 92.7722 89.6201 93.6615 89.2521V89.2521C94.5619 88.8795 95.5535 89.3456 96.1306 90.1307C96.6461 90.8321 97.169 91.1452 97.6167 91.276C98.3121 91.4785 99.0733 91.3042 99.8437 90.6764C101.385 89.4211 102.522 86.5157 100.67 83.2647L100.618 83.1754L100.576 83.0805C98.5696 78.3673 92.7071 76.7507 88.1575 78.7841C81.7693 81.6396 79.6068 89.808 82.4026 96.1302C86.2522 104.836 97.025 107.747 105.353 103.892C116.634 98.67 120.38 84.2706 115.31 73.1645C110.671 63.0045 100.042 57.5011 89.2592 57.243C88.9531 57.2354 88.6458 57.2297 88.3395 57.231C88.3393 57.231 88.3391 57.2309 88.339 57.2308V57.2308ZM83.5098 62.3044C83.5097 62.3044 83.5098 62.3045 83.5098 62.3045C84.117 62.3112 84.703 62.3706 85.2737 62.4765V62.4765C86.7167 62.7447 86.1466 64.7176 84.7029 64.9819C81.3341 65.5985 78.2519 67.2585 75.5689 69.6987C72.7021 72.3055 70.3331 75.8188 68.7214 79.8426C68.0431 81.5361 65.6447 81.5852 65.729 79.7628V79.7628C65.7845 78.5583 66.0506 77.3025 66.6254 75.9237C68.3309 72.5025 70.5697 69.4775 73.2305 67.0574C74.6978 65.7232 76.3043 64.5755 78.0184 63.6573C80.0685 62.6676 81.8669 62.2863 83.5097 62.3043C83.5098 62.3043 83.5098 62.3044 83.5098 62.3044V62.3044ZM106.566 74.1369C106.565 74.1373 106.566 74.1377 106.566 74.1379C110.801 76.6384 113.01 82.0868 112.742 87.5548C112.636 89.7187 112.092 91.9177 111.072 93.9399C108.736 97.529 104.426 98.7793 101.717 97.9091C101.707 97.9059 101.699 97.8982 101.695 97.8883V97.8883C101.689 97.8707 101.698 97.8511 101.716 97.8445C106.933 95.8712 109.032 91.6994 109.244 87.3761C109.253 87.1783 109.259 86.9806 109.26 86.7833C109.263 86.2338 109.275 85.684 109.304 85.1352C109.428 82.8046 109.06 80.1935 108.212 77.7095C107.794 76.4826 107.252 75.2749 106.565 74.1727C106.558 74.1617 106.558 74.1477 106.566 74.1369V74.1369V74.1369ZM76.6589 75.9413C77.8636 75.187 78.7735 76.7688 77.9128 77.8999C76.2418 80.0956 75.3846 82.1036 74.9064 84.1189C74.1847 87.1616 74.3835 90.3551 74.3616 94.1596C74.3353 98.6773 73.8815 103.947 70.9037 110.431V110.431C70.9017 110.436 70.8964 110.439 70.8931 110.444C66.9391 115.52 62.4075 120.358 57.9786 123.23C57.9766 123.231 57.974 123.231 57.9718 123.23V123.23C57.9677 123.228 57.9667 123.222 57.9698 123.219C70.0029 109.637 70.815 101.426 70.8568 94.1357C70.8778 90.4903 70.6218 86.9967 71.5016 83.2881C71.6095 82.8334 71.7343 82.383 71.8758 81.9379C71.8763 81.9362 71.8779 81.935 71.8797 81.935V81.935C71.8813 81.935 71.8827 81.9341 71.8834 81.9327C73.4018 78.6991 74.9906 76.9865 76.6589 75.9413V75.9413Z" fill="white"/>
<rect width="143.089" height="202.997" rx="10" fill="#2E2E2E"/>
<path d="M87.5711 56.4524C87.571 56.4523 87.5708 56.4521 87.5706 56.4521C82.9741 56.4699 78.3827 57.4463 74.244 59.4195C70.0319 61.428 66.1589 65.9143 63.2965 71.3C60.4339 76.6854 58.5739 82.9334 58.1035 88.1533C56.7114 103.613 48.5071 117.417 28.6535 135.642C28.3288 135.94 28.1364 136.364 28.1326 136.805V136.805C28.121 138.148 29.6776 138.89 30.7018 138.021C42.6065 127.921 51.3133 117.855 57.6844 107.819C57.6864 107.816 57.6906 107.815 57.694 107.816V107.816C57.6974 107.818 57.699 107.822 57.698 107.825C55.9553 113.99 53.4558 119.818 49.5242 124.524C43.7145 131.176 36.7632 137.815 28.4534 144.439C28.2034 144.638 28.0557 144.94 28.0533 145.26V145.26C28.0489 145.845 28.5213 146.322 29.1065 146.323L32.7339 146.333V146.333C32.7906 146.333 32.8452 146.312 32.8871 146.273L33.0621 146.113C37.6328 142.985 42.1655 140.141 46.6581 138.24C46.6691 138.236 46.6818 138.238 46.6902 138.247V138.247C46.7017 138.258 46.7013 138.277 46.6892 138.289L41.47 143.125C40.2311 144.274 41.0409 146.345 42.73 146.349V146.349C43.1809 146.35 43.6169 146.188 43.9555 145.89C52.8366 138.076 61.3187 128.979 67.7395 120.335C73.5036 112.574 77.5159 105.133 78.8266 99.6275C79.0537 98.6732 78.8318 97.6966 78.4352 96.7994V96.7994C74.9032 88.8124 77.6338 78.4889 85.9776 74.7595C92.1157 72.0155 100.016 74.1585 102.938 80.7116C102.966 80.7748 102.999 80.832 103.026 80.8958C105.521 85.4651 104.184 90.2919 101.274 92.6637C99.7986 93.8654 97.8152 94.473 95.8821 93.9094C94.3776 93.4712 93.0521 92.3614 92.0558 90.696C91.5617 89.87 92.0043 88.8418 92.8937 88.4737V88.4737C93.794 88.1012 94.7856 88.5673 95.3627 89.3524C95.8782 90.0538 96.4011 90.3669 96.8488 90.4977C97.5442 90.7002 98.3054 90.5258 99.0758 89.898C100.617 88.6428 101.754 85.7374 99.9021 82.4864L99.8496 82.3971L99.8084 82.3022C97.8017 77.5889 91.9393 75.9724 87.3896 78.0058C81.0014 80.8612 78.8389 89.0296 81.6348 95.3519C85.4844 104.058 96.2571 106.969 104.585 103.114C115.867 97.8917 119.612 83.4923 114.542 72.3862C109.903 62.2261 99.2745 56.7228 88.4914 56.4647C88.1852 56.4571 87.878 56.4514 87.5716 56.4527C87.5714 56.4527 87.5712 56.4526 87.5711 56.4524V56.4524ZM82.7419 61.5261C82.7419 61.5261 82.7419 61.5262 82.7419 61.5262C83.3491 61.5328 83.9352 61.5923 84.5058 61.6982V61.6982C85.9488 61.9664 85.3788 63.9393 83.935 64.2035C80.5662 64.8201 77.484 66.4802 74.801 68.9204C71.9342 71.5272 69.5653 75.0405 67.9535 79.0643C67.2752 80.7577 64.8769 80.8069 64.9611 78.9845V78.9845C65.0166 77.78 65.2827 76.5242 65.8575 75.1454C67.563 71.7242 69.8018 68.6991 72.4626 66.2791C73.9299 64.9449 75.5364 63.7972 77.2505 62.879C79.3006 61.8893 81.0991 61.508 82.7419 61.526C82.7419 61.526 82.7419 61.5261 82.7419 61.5261V61.5261ZM105.798 73.3586C105.798 73.3589 105.798 73.3594 105.798 73.3596C110.033 75.8601 112.242 81.3085 111.974 86.7765C111.869 88.9404 111.324 91.1394 110.304 93.1616C107.968 96.7507 103.658 98.001 100.949 97.1308C100.939 97.1276 100.931 97.1199 100.927 97.11V97.11C100.921 97.0924 100.93 97.0728 100.948 97.0661C106.165 95.0929 108.264 90.9211 108.476 86.5978C108.486 86.4 108.491 86.2023 108.492 86.005C108.495 85.4554 108.507 84.9057 108.536 84.3569C108.66 82.0263 108.292 79.4152 107.444 76.9311C107.026 75.7043 106.485 74.4966 105.797 73.3944C105.79 73.3834 105.791 73.3694 105.798 73.3586V73.3586V73.3586ZM75.891 75.163C77.0957 74.4087 78.0057 75.9904 77.1449 77.1215C75.4739 79.3173 74.6167 81.3252 74.1385 83.3405C73.4168 86.3832 73.6156 89.5767 73.5937 93.3813C73.5674 97.8989 73.1136 103.169 70.1358 109.653V109.653C70.1338 109.658 70.1285 109.661 70.1252 109.665C66.1712 114.742 61.6396 119.58 57.2107 122.451C57.2087 122.453 57.2061 122.453 57.204 122.452V122.452C57.1998 122.45 57.1988 122.444 57.2019 122.441C69.235 108.859 70.0471 100.648 70.0889 93.3574C70.11 89.7119 69.854 86.2184 70.7337 82.5097C70.8416 82.0551 70.9665 81.6047 71.1079 81.1596C71.1084 81.1579 71.11 81.1567 71.1118 81.1567V81.1567C71.1134 81.1567 71.1149 81.1558 71.1155 81.1543C72.6339 77.9208 74.2227 76.2081 75.891 75.163V75.163Z" fill="white"/>
<defs>
<filter id="filter0_d_394_150" x="2.91119" y="7.00293" width="151.089" height="210.996" filterUnits="userSpaceOnUse" color-interpolation-filters="sRGB">
<feFlood flood-opacity="0" result="BackgroundImageFix"/>
<feColorMatrix in="SourceAlpha" type="matrix" values="0 0 0 0 0 0 0 0 0 0 0 0 0 0 0 0 0 0 127 0" result="hardAlpha"/>
<feOffset dy="4"/>
<feGaussianBlur stdDeviation="2"/>
<feComposite in2="hardAlpha" operator="out"/>
<feColorMatrix type="matrix" values="0 0 0 0 0 0 0 0 0 0 0 0 0 0 0 0 0 0 0.25 0"/>
<feBlend mode="normal" in2="BackgroundImageFix" result="effect1_dropShadow_394_150"/>
<feBlend mode="normal" in="SourceGraphic" in2="effect1_dropShadow_394_150" result="shape"/>
</filter>
</defs>
</svg>
